<?xml version="1.0" encoding="UTF-8" standalone="no"?>
<!DOCTYPE svg PUBLIC "-//W3C//DTD SVG 1.1//EN"
 "http://www.w3.org/Graphics/SVG/1.1/DTD/svg11.dtd">
<!-- Generated by graphviz version 2.42.3 (20191010.1750)
 -->
<!-- Title: snakemake_dag Pages: 1 -->
<svg width="1111pt" height="476pt"
 viewBox="0.00 0.00 1110.50 476.00" xmlns="http://www.w3.org/2000/svg" xmlns:xlink="http://www.w3.org/1999/xlink">
<g id="graph0" class="graph" transform="scale(1 1) rotate(0) translate(4 472)">
<title>snakemake_dag</title>
<polygon fill="white" stroke="transparent" points="-4,4 -4,-472 1106.5,-472 1106.5,4 -4,4"/>
<!-- 0 -->
<g id="node1" class="node">
<title>0</title>
<path fill="none" stroke="#56d86b" stroke-width="2" d="M654.5,-36C654.5,-36 624.5,-36 624.5,-36 618.5,-36 612.5,-30 612.5,-24 612.5,-24 612.5,-12 612.5,-12 612.5,-6 618.5,0 624.5,0 624.5,0 654.5,0 654.5,0 660.5,0 666.5,-6 666.5,-12 666.5,-12 666.5,-24 666.5,-24 666.5,-30 660.5,-36 654.5,-36"/>
<text text-anchor="middle" x="639.5" y="-15.5" font-family="sans" font-size="10.00">all</text>
</g>
<!-- 1 -->
<g id="node2" class="node">
<title>1</title>
<path fill="none" stroke="#d8cb56" stroke-width="2" d="M681,-324C681,-324 586,-324 586,-324 580,-324 574,-318 574,-312 574,-312 574,-300 574,-300 574,-294 580,-288 586,-288 586,-288 681,-288 681,-288 687,-288 693,-294 693,-300 693,-300 693,-312 693,-312 693,-318 687,-324 681,-324"/>
<text text-anchor="middle" x="633.5" y="-303.5" font-family="sans" font-size="10.00">amoeba_annot_stats</text>
</g>
<!-- 1&#45;&gt;0 -->
<g id="edge1" class="edge">
<title>1&#45;&gt;0</title>
<path fill="none" stroke="grey" stroke-width="2" d="M637.9,-287.95C640.35,-277.62 643.17,-264.14 644.5,-252 652.63,-177.85 646.46,-89.65 642.37,-46.1"/>
<polygon fill="grey" stroke="grey" stroke-width="2" points="645.84,-45.63 641.38,-36.02 638.87,-46.32 645.84,-45.63"/>
</g>
<!-- 21 -->
<g id="node22" class="node">
<title>21</title>
<path fill="none" stroke="#56d0d8" stroke-width="2" d="M498.5,-252C498.5,-252 414.5,-252 414.5,-252 408.5,-252 402.5,-246 402.5,-240 402.5,-240 402.5,-228 402.5,-228 402.5,-222 408.5,-216 414.5,-216 414.5,-216 498.5,-216 498.5,-216 504.5,-216 510.5,-222 510.5,-228 510.5,-228 510.5,-240 510.5,-240 510.5,-246 504.5,-252 498.5,-252"/>
<text text-anchor="middle" x="456.5" y="-231.5" font-family="sans" font-size="10.00">get_hgt_coords_v2</text>
</g>
<!-- 1&#45;&gt;21 -->
<g id="edge32" class="edge">
<title>1&#45;&gt;21</title>
<path fill="none" stroke="grey" stroke-width="2" d="M590.2,-287.88C565.79,-278.22 535.1,-266.09 509.29,-255.88"/>
<polygon fill="grey" stroke="grey" stroke-width="2" points="510.24,-252.49 499.66,-252.07 507.67,-259 510.24,-252.49"/>
</g>
<!-- 2 -->
<g id="node3" class="node">
<title>2</title>
<path fill="none" stroke="#5673d8" stroke-width="2" d="M1090.5,-108C1090.5,-108 1010.5,-108 1010.5,-108 1004.5,-108 998.5,-102 998.5,-96 998.5,-96 998.5,-84 998.5,-84 998.5,-78 1004.5,-72 1010.5,-72 1010.5,-72 1090.5,-72 1090.5,-72 1096.5,-72 1102.5,-78 1102.5,-84 1102.5,-84 1102.5,-96 1102.5,-96 1102.5,-102 1096.5,-108 1090.5,-108"/>
<text text-anchor="middle" x="1050.5" y="-87.5" font-family="sans" font-size="10.00">plot_matrix_rDNA</text>
</g>
<!-- 2&#45;&gt;0 -->
<g id="edge12" class="edge">
<title>2&#45;&gt;0</title>
<path fill="none" stroke="grey" stroke-width="2" d="M998.37,-75.06C993.7,-73.97 989.02,-72.93 984.5,-72 873.39,-49.21 740.33,-31.42 676.81,-23.49"/>
<polygon fill="grey" stroke="grey" stroke-width="2" points="676.86,-19.97 666.5,-22.22 676,-26.92 676.86,-19.97"/>
</g>
<!-- 3 -->
<g id="node4" class="node">
<title>3</title>
<path fill="none" stroke="#c6d856" stroke-width="2" d="M1049,-324C1049,-324 968,-324 968,-324 962,-324 956,-318 956,-312 956,-312 956,-300 956,-300 956,-294 962,-288 968,-288 968,-288 1049,-288 1049,-288 1055,-288 1061,-294 1061,-300 1061,-300 1061,-312 1061,-312 1061,-318 1055,-324 1049,-324"/>
<text text-anchor="middle" x="1008.5" y="-303.5" font-family="sans" font-size="10.00">mcscanx_amoeba</text>
</g>
<!-- 3&#45;&gt;0 -->
<g id="edge5" class="edge">
<title>3&#45;&gt;0</title>
<path fill="none" stroke="grey" stroke-width="2" d="M1006.21,-287.69C999.46,-244 975.44,-128.69 904.5,-72 869.78,-44.26 741.31,-28.55 676.87,-22.26"/>
<polygon fill="grey" stroke="grey" stroke-width="2" points="677.02,-18.76 666.73,-21.29 676.36,-25.72 677.02,-18.76"/>
</g>
<!-- 23 -->
<g id="node24" class="node">
<title>23</title>
<path fill="none" stroke="#d87556" stroke-width="2" d="M892.5,-252C892.5,-252 844.5,-252 844.5,-252 838.5,-252 832.5,-246 832.5,-240 832.5,-240 832.5,-228 832.5,-228 832.5,-222 838.5,-216 844.5,-216 844.5,-216 892.5,-216 892.5,-216 898.5,-216 904.5,-222 904.5,-228 904.5,-228 904.5,-240 904.5,-240 904.5,-246 898.5,-252 892.5,-252"/>
<text text-anchor="middle" x="868.5" y="-231.5" font-family="sans" font-size="10.00">prep_circos</text>
</g>
<!-- 3&#45;&gt;23 -->
<g id="edge37" class="edge">
<title>3&#45;&gt;23</title>
<path fill="none" stroke="grey" stroke-width="2" d="M974.25,-287.88C955.44,-278.47 931.92,-266.71 911.83,-256.67"/>
<polygon fill="grey" stroke="grey" stroke-width="2" points="913.39,-253.53 902.88,-252.19 910.26,-259.79 913.39,-253.53"/>
</g>
<!-- 4 -->
<g id="node5" class="node">
<title>4</title>
<path fill="none" stroke="#56d8c9" stroke-width="2" d="M883.5,-108C883.5,-108 853.5,-108 853.5,-108 847.5,-108 841.5,-102 841.5,-96 841.5,-96 841.5,-84 841.5,-84 841.5,-78 847.5,-72 853.5,-72 853.5,-72 883.5,-72 883.5,-72 889.5,-72 895.5,-78 895.5,-84 895.5,-84 895.5,-96 895.5,-96 895.5,-102 889.5,-108 883.5,-108"/>
<text text-anchor="middle" x="868.5" y="-87.5" font-family="sans" font-size="10.00">circos</text>
</g>
<!-- 4&#45;&gt;0 -->
<g id="edge9" class="edge">
<title>4&#45;&gt;0</title>
<path fill="none" stroke="grey" stroke-width="2" d="M841.32,-79.54C833.93,-77.03 825.93,-74.36 818.5,-72 769.52,-56.43 712.53,-39.81 676.25,-29.42"/>
<polygon fill="grey" stroke="grey" stroke-width="2" points="677.17,-26.04 666.59,-26.66 675.25,-32.77 677.17,-26.04"/>
</g>
<!-- 5 -->
<g id="node6" class="node">
<title>5</title>
<path fill="none" stroke="#5682d8" stroke-width="2" d="M543.5,-324C543.5,-324 479.5,-324 479.5,-324 473.5,-324 467.5,-318 467.5,-312 467.5,-312 467.5,-300 467.5,-300 467.5,-294 473.5,-288 479.5,-288 479.5,-288 543.5,-288 543.5,-288 549.5,-288 555.5,-294 555.5,-300 555.5,-300 555.5,-312 555.5,-312 555.5,-318 549.5,-324 543.5,-324"/>
<text text-anchor="middle" x="511.5" y="-303.5" font-family="sans" font-size="10.00">plot_assembly</text>
</g>
<!-- 5&#45;&gt;0 -->
<g id="edge10" class="edge">
<title>5&#45;&gt;0</title>
<path fill="none" stroke="grey" stroke-width="2" d="M467.29,-290.79C437.52,-280.23 402.16,-265.39 393.5,-252 380,-231.14 401.72,-154.01 407.5,-144 449.02,-72.18 548.1,-39.39 602.38,-26.37"/>
<polygon fill="grey" stroke="grey" stroke-width="2" points="603.33,-29.75 612.29,-24.1 601.76,-22.92 603.33,-29.75"/>
</g>
<!-- 6 -->
<g id="node7" class="node">
<title>6</title>
<path fill="none" stroke="#56a2d8" stroke-width="2" d="M832.5,-396C832.5,-396 778.5,-396 778.5,-396 772.5,-396 766.5,-390 766.5,-384 766.5,-384 766.5,-372 766.5,-372 766.5,-366 772.5,-360 778.5,-360 778.5,-360 832.5,-360 832.5,-360 838.5,-360 844.5,-366 844.5,-372 844.5,-372 844.5,-384 844.5,-384 844.5,-390 838.5,-396 832.5,-396"/>
<text text-anchor="middle" x="805.5" y="-375.5" font-family="sans" font-size="10.00">quast_report</text>
</g>
<!-- 6&#45;&gt;0 -->
<g id="edge6" class="edge">
<title>6&#45;&gt;0</title>
<path fill="none" stroke="grey" stroke-width="2" d="M805.3,-359.95C805.01,-333.29 804.5,-280.12 804.5,-235 804.5,-235 804.5,-235 804.5,-161 804.5,-93.82 724.95,-51.47 676.32,-31.86"/>
<polygon fill="grey" stroke="grey" stroke-width="2" points="677.33,-28.5 666.75,-28.13 674.79,-35.02 677.33,-28.5"/>
</g>
<!-- 7 -->
<g id="node8" class="node">
<title>7</title>
<path fill="none" stroke="#56d8a9" stroke-width="2" d="M754,-180C754,-180 709,-180 709,-180 703,-180 697,-174 697,-168 697,-168 697,-156 697,-156 697,-150 703,-144 709,-144 709,-144 754,-144 754,-144 760,-144 766,-150 766,-156 766,-156 766,-168 766,-168 766,-174 760,-180 754,-180"/>
<text text-anchor="middle" x="731.5" y="-159.5" font-family="sans" font-size="10.00">plot_busco</text>
</g>
<!-- 7&#45;&gt;0 -->
<g id="edge7" class="edge">
<title>7&#45;&gt;0</title>
<path fill="none" stroke="grey" stroke-width="2" d="M722.01,-143.97C711.76,-125.83 694.71,-96.43 678.5,-72 672.44,-62.86 665.44,-53.12 659.06,-44.52"/>
<polygon fill="grey" stroke="grey" stroke-width="2" points="661.74,-42.26 652.94,-36.36 656.14,-46.46 661.74,-42.26"/>
</g>
<!-- 8 -->
<g id="node9" class="node">
<title>8</title>
<path fill="none" stroke="#61d856" stroke-width="2" d="M405,-108C405,-108 286,-108 286,-108 280,-108 274,-102 274,-96 274,-96 274,-84 274,-84 274,-78 280,-72 286,-72 286,-72 405,-72 405,-72 411,-72 417,-78 417,-84 417,-84 417,-96 417,-96 417,-102 411,-108 405,-108"/>
<text text-anchor="middle" x="345.5" y="-87.5" font-family="sans" font-size="10.00">aggregate_virus_matches</text>
</g>
<!-- 8&#45;&gt;0 -->
<g id="edge2" class="edge">
<title>8&#45;&gt;0</title>
<path fill="none" stroke="grey" stroke-width="2" d="M417.04,-71.97C475.51,-58.04 555.83,-38.92 602.24,-27.87"/>
<polygon fill="grey" stroke="grey" stroke-width="2" points="603.25,-31.23 612.17,-25.51 601.63,-24.42 603.25,-31.23"/>
</g>
<!-- 9 -->
<g id="node10" class="node">
<title>9</title>
<path fill="none" stroke="#56d88a" stroke-width="2" d="M103,-108C103,-108 12,-108 12,-108 6,-108 0,-102 0,-96 0,-96 0,-84 0,-84 0,-78 6,-72 12,-72 12,-72 103,-72 103,-72 109,-72 115,-78 115,-84 115,-84 115,-96 115,-96 115,-102 109,-108 103,-108"/>
<text text-anchor="middle" x="57.5" y="-87.5" font-family="sans" font-size="10.00">viral_regions_pileup</text>
</g>
<!-- 9&#45;&gt;0 -->
<g id="edge3" class="edge">
<title>9&#45;&gt;0</title>
<path fill="none" stroke="grey" stroke-width="2" d="M115.13,-73.81C118.29,-73.15 121.43,-72.54 124.5,-72 301.67,-40.58 516.67,-25.89 602,-20.98"/>
<polygon fill="grey" stroke="grey" stroke-width="2" points="602.44,-24.46 612.22,-20.4 602.04,-17.47 602.44,-24.46"/>
</g>
<!-- 10 -->
<g id="node11" class="node">
<title>10</title>
<path fill="none" stroke="#56b1d8" stroke-width="2" d="M243.5,-108C243.5,-108 145.5,-108 145.5,-108 139.5,-108 133.5,-102 133.5,-96 133.5,-96 133.5,-84 133.5,-84 133.5,-78 139.5,-72 145.5,-72 145.5,-72 243.5,-72 243.5,-72 249.5,-72 255.5,-78 255.5,-84 255.5,-84 255.5,-96 255.5,-96 255.5,-102 249.5,-108 243.5,-108"/>
<text text-anchor="middle" x="194.5" y="-87.5" font-family="sans" font-size="10.00">viral_regions_borders</text>
</g>
<!-- 10&#45;&gt;0 -->
<g id="edge4" class="edge">
<title>10&#45;&gt;0</title>
<path fill="none" stroke="grey" stroke-width="2" d="M255.51,-73.81C258.54,-73.17 261.55,-72.56 264.5,-72 387.09,-48.51 534.09,-30.71 601.87,-23.08"/>
<polygon fill="grey" stroke="grey" stroke-width="2" points="602.51,-26.53 612.06,-21.95 601.73,-19.58 602.51,-26.53"/>
</g>
<!-- 11 -->
<g id="node12" class="node">
<title>11</title>
<path fill="none" stroke="#d88556" stroke-width="2" d="M624.5,-180C624.5,-180 540.5,-180 540.5,-180 534.5,-180 528.5,-174 528.5,-168 528.5,-168 528.5,-156 528.5,-156 528.5,-150 534.5,-144 540.5,-144 540.5,-144 624.5,-144 624.5,-144 630.5,-144 636.5,-150 636.5,-156 636.5,-156 636.5,-168 636.5,-168 636.5,-174 630.5,-180 624.5,-180"/>
<text text-anchor="middle" x="582.5" y="-159.5" font-family="sans" font-size="10.00">windows_inter_hgt</text>
</g>
<!-- 11&#45;&gt;0 -->
<g id="edge11" class="edge">
<title>11&#45;&gt;0</title>
<path fill="none" stroke="grey" stroke-width="2" d="M589.38,-143.87C599.18,-119.46 617.25,-74.43 628.81,-45.64"/>
<polygon fill="grey" stroke="grey" stroke-width="2" points="632.12,-46.77 632.6,-36.19 625.63,-44.17 632.12,-46.77"/>
</g>
<!-- 12 -->
<g id="node13" class="node">
<title>12</title>
<path fill="none" stroke="#d85656" stroke-width="2" d="M567.5,-108C567.5,-108 511.5,-108 511.5,-108 505.5,-108 499.5,-102 499.5,-96 499.5,-96 499.5,-84 499.5,-84 499.5,-78 505.5,-72 511.5,-72 511.5,-72 567.5,-72 567.5,-72 573.5,-72 579.5,-78 579.5,-84 579.5,-84 579.5,-96 579.5,-96 579.5,-102 573.5,-108 567.5,-108"/>
<text text-anchor="middle" x="539.5" y="-87.5" font-family="sans" font-size="10.00">viz_scaffolds</text>
</g>
<!-- 12&#45;&gt;0 -->
<g id="edge8" class="edge">
<title>12&#45;&gt;0</title>
<path fill="none" stroke="grey" stroke-width="2" d="M563.96,-71.88C576.8,-62.89 592.7,-51.76 606.59,-42.03"/>
<polygon fill="grey" stroke="grey" stroke-width="2" points="608.76,-44.79 614.94,-36.19 604.74,-39.06 608.76,-44.79"/>
</g>
<!-- 13 -->
<g id="node14" class="node">
<title>13</title>
<path fill="none" stroke="#d89556" stroke-width="2" d="M698,-396C698,-396 651,-396 651,-396 645,-396 639,-390 639,-384 639,-384 639,-372 639,-372 639,-366 645,-360 651,-360 651,-360 698,-360 698,-360 704,-360 710,-366 710,-372 710,-372 710,-384 710,-384 710,-390 704,-396 698,-396"/>
<text text-anchor="middle" x="674.5" y="-375.5" font-family="sans" font-size="10.00">rename_v1</text>
</g>
<!-- 13&#45;&gt;1 -->
<g id="edge13" class="edge">
<title>13&#45;&gt;1</title>
<path fill="none" stroke="grey" stroke-width="2" d="M664.37,-359.7C659.65,-351.64 653.94,-341.89 648.72,-332.98"/>
<polygon fill="grey" stroke="grey" stroke-width="2" points="651.59,-330.96 643.52,-324.1 645.55,-334.5 651.59,-330.96"/>
</g>
<!-- 24 -->
<g id="node25" class="node">
<title>24</title>
<path fill="none" stroke="#d8ac56" stroke-width="2" d="M753.5,-324C753.5,-324 723.5,-324 723.5,-324 717.5,-324 711.5,-318 711.5,-312 711.5,-312 711.5,-300 711.5,-300 711.5,-294 717.5,-288 723.5,-288 723.5,-288 753.5,-288 753.5,-288 759.5,-288 765.5,-294 765.5,-300 765.5,-300 765.5,-312 765.5,-312 765.5,-318 759.5,-324 753.5,-324"/>
<text text-anchor="middle" x="738.5" y="-303.5" font-family="sans" font-size="10.00">busco</text>
</g>
<!-- 13&#45;&gt;24 -->
<g id="edge38" class="edge">
<title>13&#45;&gt;24</title>
<path fill="none" stroke="grey" stroke-width="2" d="M690.32,-359.7C698.07,-351.22 707.54,-340.86 716.02,-331.58"/>
<polygon fill="grey" stroke="grey" stroke-width="2" points="718.7,-333.85 722.86,-324.1 713.53,-329.12 718.7,-333.85"/>
</g>
<!-- 14 -->
<g id="node15" class="node">
<title>14</title>
<path fill="none" stroke="#b6d856" stroke-width="2" d="M773,-468C773,-468 704,-468 704,-468 698,-468 692,-462 692,-456 692,-456 692,-444 692,-444 692,-438 698,-432 704,-432 704,-432 773,-432 773,-432 779,-432 785,-438 785,-444 785,-444 785,-456 785,-456 785,-462 779,-468 773,-468"/>
<text text-anchor="middle" x="738.5" y="-447.5" font-family="sans" font-size="10.00">rename_entries</text>
</g>
<!-- 14&#45;&gt;1 -->
<g id="edge14" class="edge">
<title>14&#45;&gt;1</title>
<path fill="none" stroke="grey" stroke-width="2" d="M691.92,-438.71C668.93,-431.03 643.23,-417.94 629.5,-396 618.01,-377.64 620.29,-352.72 624.71,-333.93"/>
<polygon fill="grey" stroke="grey" stroke-width="2" points="628.11,-334.76 627.31,-324.2 621.35,-332.95 628.11,-334.76"/>
</g>
<!-- 14&#45;&gt;5 -->
<g id="edge18" class="edge">
<title>14&#45;&gt;5</title>
<path fill="none" stroke="grey" stroke-width="2" d="M691.84,-432.19C668.69,-422.96 640.78,-410.46 617.5,-396 587.27,-377.23 556.55,-350.4 536.01,-331.11"/>
<polygon fill="grey" stroke="grey" stroke-width="2" points="538.32,-328.47 528.67,-324.12 533.5,-333.54 538.32,-328.47"/>
</g>
<!-- 14&#45;&gt;6 -->
<g id="edge19" class="edge">
<title>14&#45;&gt;6</title>
<path fill="none" stroke="grey" stroke-width="2" d="M755.06,-431.7C763.18,-423.22 773.09,-412.86 781.97,-403.58"/>
<polygon fill="grey" stroke="grey" stroke-width="2" points="784.74,-405.75 789.13,-396.1 779.69,-400.91 784.74,-405.75"/>
</g>
<!-- 15 -->
<g id="node16" class="node">
<title>15</title>
<path fill="none" stroke="#56d89a" stroke-width="2" d="M959,-396C959,-396 886,-396 886,-396 880,-396 874,-390 874,-384 874,-384 874,-372 874,-372 874,-366 880,-360 886,-360 886,-360 959,-360 959,-360 965,-360 971,-366 971,-372 971,-372 971,-384 971,-384 971,-390 965,-396 959,-396"/>
<text text-anchor="middle" x="922.5" y="-375.5" font-family="sans" font-size="10.00">combine_strains</text>
</g>
<!-- 14&#45;&gt;15 -->
<g id="edge27" class="edge">
<title>14&#45;&gt;15</title>
<path fill="none" stroke="grey" stroke-width="2" d="M783.51,-431.88C809,-422.18 841.07,-409.98 867.98,-399.74"/>
<polygon fill="grey" stroke="grey" stroke-width="2" points="869.53,-402.9 877.63,-396.07 867.04,-396.35 869.53,-402.9"/>
</g>
<!-- 14&#45;&gt;24 -->
<g id="edge39" class="edge">
<title>14&#45;&gt;24</title>
<path fill="none" stroke="grey" stroke-width="2" d="M738.5,-431.87C738.5,-407.67 738.5,-363.21 738.5,-334.39"/>
<polygon fill="grey" stroke="grey" stroke-width="2" points="742,-334.19 738.5,-324.19 735,-334.19 742,-334.19"/>
</g>
<!-- 15&#45;&gt;3 -->
<g id="edge15" class="edge">
<title>15&#45;&gt;3</title>
<path fill="none" stroke="grey" stroke-width="2" d="M943.76,-359.7C954.59,-350.88 967.92,-340.03 979.66,-330.47"/>
<polygon fill="grey" stroke="grey" stroke-width="2" points="981.94,-333.13 987.49,-324.1 977.52,-327.7 981.94,-333.13"/>
</g>
<!-- 15&#45;&gt;4 -->
<g id="edge16" class="edge">
<title>15&#45;&gt;4</title>
<path fill="none" stroke="grey" stroke-width="2" d="M925.21,-359.89C930.75,-320.32 940.51,-220.05 911.5,-144 907.6,-133.76 900.9,-124.01 893.95,-115.72"/>
<polygon fill="grey" stroke="grey" stroke-width="2" points="896.55,-113.38 887.28,-108.26 891.33,-118.05 896.55,-113.38"/>
</g>
<!-- 15&#45;&gt;23 -->
<g id="edge36" class="edge">
<title>15&#45;&gt;23</title>
<path fill="none" stroke="grey" stroke-width="2" d="M915.99,-359.87C906.7,-335.46 889.58,-290.43 878.63,-261.64"/>
<polygon fill="grey" stroke="grey" stroke-width="2" points="881.86,-260.29 875.04,-252.19 875.32,-262.78 881.86,-260.29"/>
</g>
<!-- 16 -->
<g id="node17" class="node">
<title>16</title>
<path fill="none" stroke="#78d856" stroke-width="2" d="M890.5,-180C890.5,-180 846.5,-180 846.5,-180 840.5,-180 834.5,-174 834.5,-168 834.5,-168 834.5,-156 834.5,-156 834.5,-150 840.5,-144 846.5,-144 846.5,-144 890.5,-144 890.5,-144 896.5,-144 902.5,-150 902.5,-156 902.5,-156 902.5,-168 902.5,-168 902.5,-174 896.5,-180 890.5,-180"/>
<text text-anchor="middle" x="868.5" y="-159.5" font-family="sans" font-size="10.00">filter_links</text>
</g>
<!-- 16&#45;&gt;4 -->
<g id="edge17" class="edge">
<title>16&#45;&gt;4</title>
<path fill="none" stroke="grey" stroke-width="2" d="M868.5,-143.7C868.5,-135.98 868.5,-126.71 868.5,-118.11"/>
<polygon fill="grey" stroke="grey" stroke-width="2" points="872,-118.1 868.5,-108.1 865,-118.1 872,-118.1"/>
</g>
<!-- 17 -->
<g id="node18" class="node">
<title>17</title>
<path fill="none" stroke="#56d87b" stroke-width="2" d="M764,-252C764,-252 705,-252 705,-252 699,-252 693,-246 693,-240 693,-240 693,-228 693,-228 693,-222 699,-216 705,-216 705,-216 764,-216 764,-216 770,-216 776,-222 776,-228 776,-228 776,-240 776,-240 776,-246 770,-252 764,-252"/>
<text text-anchor="middle" x="734.5" y="-231.5" font-family="sans" font-size="10.00">format_busco</text>
</g>
<!-- 17&#45;&gt;7 -->
<g id="edge20" class="edge">
<title>17&#45;&gt;7</title>
<path fill="none" stroke="grey" stroke-width="2" d="M733.76,-215.7C733.43,-207.98 733.03,-198.71 732.66,-190.11"/>
<polygon fill="grey" stroke="grey" stroke-width="2" points="736.16,-189.95 732.23,-180.1 729.16,-190.25 736.16,-189.95"/>
</g>
<!-- 18 -->
<g id="node19" class="node">
<title>18</title>
<path fill="none" stroke="#56d85b" stroke-width="2" d="M332.5,-252C332.5,-252 236.5,-252 236.5,-252 230.5,-252 224.5,-246 224.5,-240 224.5,-240 224.5,-228 224.5,-228 224.5,-222 230.5,-216 236.5,-216 236.5,-216 332.5,-216 332.5,-216 338.5,-216 344.5,-222 344.5,-228 344.5,-228 344.5,-240 344.5,-240 344.5,-246 338.5,-252 332.5,-252"/>
<text text-anchor="middle" x="284.5" y="-231.5" font-family="sans" font-size="10.00">parse_virus_matches</text>
</g>
<!-- 18&#45;&gt;8 -->
<g id="edge21" class="edge">
<title>18&#45;&gt;8</title>
<path fill="none" stroke="grey" stroke-width="2" d="M291.86,-215.87C302.35,-191.46 321.69,-146.43 334.06,-117.64"/>
<polygon fill="grey" stroke="grey" stroke-width="2" points="337.38,-118.76 338.12,-108.19 330.95,-116 337.38,-118.76"/>
</g>
<!-- 19 -->
<g id="node20" class="node">
<title>19</title>
<path fill="none" stroke="#88d856" stroke-width="2" d="M248,-180C248,-180 141,-180 141,-180 135,-180 129,-174 129,-168 129,-168 129,-156 129,-156 129,-150 135,-144 141,-144 141,-144 248,-144 248,-144 254,-144 260,-150 260,-156 260,-156 260,-168 260,-168 260,-174 254,-180 248,-180"/>
<text text-anchor="middle" x="194.5" y="-159.5" font-family="sans" font-size="10.00">merge_virus_segments</text>
</g>
<!-- 18&#45;&gt;19 -->
<g id="edge31" class="edge">
<title>18&#45;&gt;19</title>
<path fill="none" stroke="grey" stroke-width="2" d="M262.25,-215.7C250.92,-206.88 236.97,-196.03 224.68,-186.47"/>
<polygon fill="grey" stroke="grey" stroke-width="2" points="226.53,-183.48 216.49,-180.1 222.24,-189.01 226.53,-183.48"/>
</g>
<!-- 22 -->
<g id="node23" class="node">
<title>22</title>
<path fill="none" stroke="#5692d8" stroke-width="2" d="M484.5,-180C484.5,-180 428.5,-180 428.5,-180 422.5,-180 416.5,-174 416.5,-168 416.5,-168 416.5,-156 416.5,-156 416.5,-150 422.5,-144 428.5,-144 428.5,-144 484.5,-144 484.5,-144 490.5,-144 496.5,-150 496.5,-156 496.5,-156 496.5,-168 496.5,-168 496.5,-174 490.5,-180 484.5,-180"/>
<text text-anchor="middle" x="456.5" y="-159.5" font-family="sans" font-size="10.00">agg_features</text>
</g>
<!-- 18&#45;&gt;22 -->
<g id="edge35" class="edge">
<title>18&#45;&gt;22</title>
<path fill="none" stroke="grey" stroke-width="2" d="M326.58,-215.88C350.83,-206.01 381.45,-193.54 406.87,-183.2"/>
<polygon fill="grey" stroke="grey" stroke-width="2" points="408.39,-186.36 416.34,-179.35 405.76,-179.87 408.39,-186.36"/>
</g>
<!-- 19&#45;&gt;9 -->
<g id="edge22" class="edge">
<title>19&#45;&gt;9</title>
<path fill="none" stroke="grey" stroke-width="2" d="M160.99,-143.88C142.66,-134.51 119.76,-122.81 100.17,-112.8"/>
<polygon fill="grey" stroke="grey" stroke-width="2" points="101.64,-109.62 91.14,-108.19 98.46,-115.86 101.64,-109.62"/>
</g>
<!-- 19&#45;&gt;10 -->
<g id="edge23" class="edge">
<title>19&#45;&gt;10</title>
<path fill="none" stroke="grey" stroke-width="2" d="M194.5,-143.7C194.5,-135.98 194.5,-126.71 194.5,-118.11"/>
<polygon fill="grey" stroke="grey" stroke-width="2" points="198,-118.1 194.5,-108.1 191,-118.1 198,-118.1"/>
</g>
<!-- 20 -->
<g id="node21" class="node">
<title>20</title>
<path fill="none" stroke="#97d856" stroke-width="2" d="M624,-252C624,-252 541,-252 541,-252 535,-252 529,-246 529,-240 529,-240 529,-228 529,-228 529,-222 535,-216 541,-216 541,-216 624,-216 624,-216 630,-216 636,-222 636,-228 636,-228 636,-240 636,-240 636,-246 630,-252 624,-252"/>
<text text-anchor="middle" x="582.5" y="-231.5" font-family="sans" font-size="10.00">genomic_windows</text>
</g>
<!-- 20&#45;&gt;11 -->
<g id="edge24" class="edge">
<title>20&#45;&gt;11</title>
<path fill="none" stroke="grey" stroke-width="2" d="M582.5,-215.7C582.5,-207.98 582.5,-198.71 582.5,-190.11"/>
<polygon fill="grey" stroke="grey" stroke-width="2" points="586,-190.1 582.5,-180.1 579,-190.1 586,-190.1"/>
</g>
<!-- 21&#45;&gt;11 -->
<g id="edge25" class="edge">
<title>21&#45;&gt;11</title>
<path fill="none" stroke="grey" stroke-width="2" d="M487.32,-215.88C503.95,-206.64 524.66,-195.13 542.52,-185.21"/>
<polygon fill="grey" stroke="grey" stroke-width="2" points="544.52,-188.11 551.56,-180.19 541.12,-181.99 544.52,-188.11"/>
</g>
<!-- 21&#45;&gt;22 -->
<g id="edge34" class="edge">
<title>21&#45;&gt;22</title>
<path fill="none" stroke="grey" stroke-width="2" d="M456.5,-215.7C456.5,-207.98 456.5,-198.71 456.5,-190.11"/>
<polygon fill="grey" stroke="grey" stroke-width="2" points="460,-190.1 456.5,-180.1 453,-190.1 460,-190.1"/>
</g>
<!-- 22&#45;&gt;12 -->
<g id="edge26" class="edge">
<title>22&#45;&gt;12</title>
<path fill="none" stroke="grey" stroke-width="2" d="M477.02,-143.7C487.37,-134.97 500.09,-124.24 511.34,-114.75"/>
<polygon fill="grey" stroke="grey" stroke-width="2" points="513.83,-117.23 519.22,-108.1 509.32,-111.88 513.83,-117.23"/>
</g>
<!-- 23&#45;&gt;16 -->
<g id="edge28" class="edge">
<title>23&#45;&gt;16</title>
<path fill="none" stroke="grey" stroke-width="2" d="M868.5,-215.7C868.5,-207.98 868.5,-198.71 868.5,-190.11"/>
<polygon fill="grey" stroke="grey" stroke-width="2" points="872,-190.1 868.5,-180.1 865,-190.1 872,-190.1"/>
</g>
<!-- 24&#45;&gt;17 -->
<g id="edge29" class="edge">
<title>24&#45;&gt;17</title>
<path fill="none" stroke="grey" stroke-width="2" d="M737.51,-287.7C737.07,-279.98 736.54,-270.71 736.05,-262.11"/>
<polygon fill="grey" stroke="grey" stroke-width="2" points="739.54,-261.89 735.48,-252.1 732.55,-262.29 739.54,-261.89"/>
</g>
<!-- 25 -->
<g id="node26" class="node">
<title>25</title>
<path fill="none" stroke="#d8bc56" stroke-width="2" d="M327,-324C327,-324 238,-324 238,-324 232,-324 226,-318 226,-312 226,-312 226,-300 226,-300 226,-294 232,-288 238,-288 238,-288 327,-288 327,-288 333,-288 339,-294 339,-300 339,-300 339,-312 339,-312 339,-318 333,-324 327,-324"/>
<text text-anchor="middle" x="282.5" y="-303.5" font-family="sans" font-size="10.00">map_virus_amoeba</text>
</g>
<!-- 25&#45;&gt;18 -->
<g id="edge30" class="edge">
<title>25&#45;&gt;18</title>
<path fill="none" stroke="grey" stroke-width="2" d="M282.99,-287.7C283.21,-279.98 283.48,-270.71 283.73,-262.11"/>
<polygon fill="grey" stroke="grey" stroke-width="2" points="287.22,-262.2 284.01,-252.1 280.23,-262 287.22,-262.2"/>
</g>
<!-- 26 -->
<g id="node27" class="node">
<title>26</title>
<path fill="none" stroke="#56d8b9" stroke-width="2" d="M437.5,-324C437.5,-324 369.5,-324 369.5,-324 363.5,-324 357.5,-318 357.5,-312 357.5,-312 357.5,-300 357.5,-300 357.5,-294 363.5,-288 369.5,-288 369.5,-288 437.5,-288 437.5,-288 443.5,-288 449.5,-294 449.5,-300 449.5,-300 449.5,-312 449.5,-312 449.5,-318 443.5,-324 437.5,-324"/>
<text text-anchor="middle" x="403.5" y="-303.5" font-family="sans" font-size="10.00">filter_blast_hits</text>
</g>
<!-- 26&#45;&gt;21 -->
<g id="edge33" class="edge">
<title>26&#45;&gt;21</title>
<path fill="none" stroke="grey" stroke-width="2" d="M416.6,-287.7C422.89,-279.39 430.55,-269.28 437.46,-260.14"/>
<polygon fill="grey" stroke="grey" stroke-width="2" points="440.3,-262.19 443.55,-252.1 434.72,-257.96 440.3,-262.19"/>
</g>
<!-- 27 -->
<g id="node28" class="node">
<title>27</title>
<path fill="none" stroke="#56c1d8" stroke-width="2" d="M304.5,-396C304.5,-396 260.5,-396 260.5,-396 254.5,-396 248.5,-390 248.5,-384 248.5,-384 248.5,-372 248.5,-372 248.5,-366 254.5,-360 260.5,-360 260.5,-360 304.5,-360 304.5,-360 310.5,-360 316.5,-366 316.5,-372 316.5,-372 316.5,-384 316.5,-384 316.5,-390 310.5,-396 304.5,-396"/>
<text text-anchor="middle" x="282.5" y="-375.5" font-family="sans" font-size="10.00">get_viruse</text>
</g>
<!-- 27&#45;&gt;25 -->
<g id="edge40" class="edge">
<title>27&#45;&gt;25</title>
<path fill="none" stroke="grey" stroke-width="2" d="M282.5,-359.7C282.5,-351.98 282.5,-342.71 282.5,-334.11"/>
<polygon fill="grey" stroke="grey" stroke-width="2" points="286,-334.1 282.5,-324.1 279,-334.1 286,-334.1"/>
</g>
<!-- 28 -->
<g id="node29" class="node">
<title>28</title>
<path fill="none" stroke="#5663d8" stroke-width="2" d="M447.5,-396C447.5,-396 359.5,-396 359.5,-396 353.5,-396 347.5,-390 347.5,-384 347.5,-384 347.5,-372 347.5,-372 347.5,-366 353.5,-360 359.5,-360 359.5,-360 447.5,-360 447.5,-360 453.5,-360 459.5,-366 459.5,-372 459.5,-372 459.5,-384 459.5,-384 459.5,-390 453.5,-396 447.5,-396"/>
<text text-anchor="middle" x="403.5" y="-375.5" font-family="sans" font-size="10.00">blast_v1_hgt_vs_ac</text>
</g>
<!-- 28&#45;&gt;26 -->
<g id="edge41" class="edge">
<title>28&#45;&gt;26</title>
<path fill="none" stroke="grey" stroke-width="2" d="M403.5,-359.7C403.5,-351.98 403.5,-342.71 403.5,-334.11"/>
<polygon fill="grey" stroke="grey" stroke-width="2" points="407,-334.1 403.5,-324.1 400,-334.1 407,-334.1"/>
</g>
<!-- 29 -->
<g id="node30" class="node">
<title>29</title>
<path fill="none" stroke="#d6d856" stroke-width="2" d="M434.5,-468C434.5,-468 372.5,-468 372.5,-468 366.5,-468 360.5,-462 360.5,-456 360.5,-456 360.5,-444 360.5,-444 360.5,-438 366.5,-432 372.5,-432 372.5,-432 434.5,-432 434.5,-432 440.5,-432 446.5,-438 446.5,-444 446.5,-444 446.5,-456 446.5,-456 446.5,-462 440.5,-468 434.5,-468"/>
<text text-anchor="middle" x="403.5" y="-447.5" font-family="sans" font-size="10.00">get_v1_hgt_fa</text>
</g>
<!-- 29&#45;&gt;28 -->
<g id="edge42" class="edge">
<title>29&#45;&gt;28</title>
<path fill="none" stroke="grey" stroke-width="2" d="M403.5,-431.7C403.5,-423.98 403.5,-414.71 403.5,-406.11"/>
<polygon fill="grey" stroke="grey" stroke-width="2" points="407,-406.1 403.5,-396.1 400,-406.1 407,-406.1"/>
</g>
</g>
</svg>
