<?xml version="1.0" encoding="UTF-8" standalone="no"?>
<!DOCTYPE svg PUBLIC "-//W3C//DTD SVG 1.1//EN"
 "http://www.w3.org/Graphics/SVG/1.1/DTD/svg11.dtd">
<!-- Generated by graphviz version 2.42.3 (20191010.1750)
 -->
<!-- Title: snakemake_dag Pages: 1 -->
<svg width="1066pt" height="476pt"
 viewBox="0.00 0.00 1065.50 476.00" xmlns="http://www.w3.org/2000/svg" xmlns:xlink="http://www.w3.org/1999/xlink">
<g id="graph0" class="graph" transform="scale(1 1) rotate(0) translate(4 472)">
<title>snakemake_dag</title>
<polygon fill="white" stroke="transparent" points="-4,4 -4,-472 1061.5,-472 1061.5,4 -4,4"/>
<!-- 0 -->
<g id="node1" class="node">
<title>0</title>
<path fill="none" stroke="#56b1d8" stroke-width="2" d="M615.5,-36C615.5,-36 585.5,-36 585.5,-36 579.5,-36 573.5,-30 573.5,-24 573.5,-24 573.5,-12 573.5,-12 573.5,-6 579.5,0 585.5,0 585.5,0 615.5,0 615.5,0 621.5,0 627.5,-6 627.5,-12 627.5,-12 627.5,-24 627.5,-24 627.5,-30 621.5,-36 615.5,-36"/>
<text text-anchor="middle" x="600.5" y="-15.5" font-family="sans" font-size="10.00">all</text>
</g>
<!-- 1 -->
<g id="node2" class="node">
<title>1</title>
<path fill="none" stroke="#88d856" stroke-width="2" d="M511,-324C511,-324 416,-324 416,-324 410,-324 404,-318 404,-312 404,-312 404,-300 404,-300 404,-294 410,-288 416,-288 416,-288 511,-288 511,-288 517,-288 523,-294 523,-300 523,-300 523,-312 523,-312 523,-318 517,-324 511,-324"/>
<text text-anchor="middle" x="463.5" y="-303.5" font-family="sans" font-size="10.00">amoeba_annot_stats</text>
</g>
<!-- 1&#45;&gt;0 -->
<g id="edge7" class="edge">
<title>1&#45;&gt;0</title>
<path fill="none" stroke="grey" stroke-width="2" d="M514.77,-287.96C532.14,-279.73 550.03,-268.05 561.5,-252 584.81,-219.38 595.26,-100.66 598.9,-46.4"/>
<polygon fill="grey" stroke="grey" stroke-width="2" points="602.41,-46.35 599.56,-36.15 595.43,-45.91 602.41,-46.35"/>
</g>
<!-- 24 -->
<g id="node25" class="node">
<title>24</title>
<path fill="none" stroke="#c6d856" stroke-width="2" d="M415.5,-252C415.5,-252 331.5,-252 331.5,-252 325.5,-252 319.5,-246 319.5,-240 319.5,-240 319.5,-228 319.5,-228 319.5,-222 325.5,-216 331.5,-216 331.5,-216 415.5,-216 415.5,-216 421.5,-216 427.5,-222 427.5,-228 427.5,-228 427.5,-240 427.5,-240 427.5,-246 421.5,-252 415.5,-252"/>
<text text-anchor="middle" x="373.5" y="-231.5" font-family="sans" font-size="10.00">get_hgt_coords_v2</text>
</g>
<!-- 1&#45;&gt;24 -->
<g id="edge37" class="edge">
<title>1&#45;&gt;24</title>
<path fill="none" stroke="grey" stroke-width="2" d="M441.25,-287.7C429.92,-278.88 415.97,-268.03 403.68,-258.47"/>
<polygon fill="grey" stroke="grey" stroke-width="2" points="405.53,-255.48 395.49,-252.1 401.24,-261.01 405.53,-255.48"/>
</g>
<!-- 2 -->
<g id="node3" class="node">
<title>2</title>
<path fill="none" stroke="#5673d8" stroke-width="2" d="M722,-396C722,-396 675,-396 675,-396 669,-396 663,-390 663,-384 663,-384 663,-372 663,-372 663,-366 669,-360 675,-360 675,-360 722,-360 722,-360 728,-360 734,-366 734,-372 734,-372 734,-384 734,-384 734,-390 728,-396 722,-396"/>
<text text-anchor="middle" x="698.5" y="-375.5" font-family="sans" font-size="10.00">rename_v1</text>
</g>
<!-- 2&#45;&gt;1 -->
<g id="edge13" class="edge">
<title>2&#45;&gt;1</title>
<path fill="none" stroke="grey" stroke-width="2" d="M662.74,-363.16C659.63,-362.06 656.52,-360.99 653.5,-360 614.09,-347.09 569.44,-334.53 533.33,-324.88"/>
<polygon fill="grey" stroke="grey" stroke-width="2" points="533.95,-321.42 523.39,-322.24 532.15,-328.19 533.95,-321.42"/>
</g>
<!-- 14 -->
<g id="node15" class="node">
<title>14</title>
<path fill="none" stroke="#56d0d8" stroke-width="2" d="M742.5,-324C742.5,-324 712.5,-324 712.5,-324 706.5,-324 700.5,-318 700.5,-312 700.5,-312 700.5,-300 700.5,-300 700.5,-294 706.5,-288 712.5,-288 712.5,-288 742.5,-288 742.5,-288 748.5,-288 754.5,-294 754.5,-300 754.5,-300 754.5,-312 754.5,-312 754.5,-318 748.5,-324 742.5,-324"/>
<text text-anchor="middle" x="727.5" y="-303.5" font-family="sans" font-size="10.00">busco</text>
</g>
<!-- 2&#45;&gt;14 -->
<g id="edge26" class="edge">
<title>2&#45;&gt;14</title>
<path fill="none" stroke="grey" stroke-width="2" d="M705.67,-359.7C708.93,-351.81 712.87,-342.3 716.5,-333.55"/>
<polygon fill="grey" stroke="grey" stroke-width="2" points="719.82,-334.68 720.41,-324.1 713.35,-332 719.82,-334.68"/>
</g>
<!-- 3 -->
<g id="node4" class="node">
<title>3</title>
<path fill="none" stroke="#5692d8" stroke-width="2" d="M640,-468C640,-468 571,-468 571,-468 565,-468 559,-462 559,-456 559,-456 559,-444 559,-444 559,-438 565,-432 571,-432 571,-432 640,-432 640,-432 646,-432 652,-438 652,-444 652,-444 652,-456 652,-456 652,-462 646,-468 640,-468"/>
<text text-anchor="middle" x="605.5" y="-447.5" font-family="sans" font-size="10.00">rename_entries</text>
</g>
<!-- 3&#45;&gt;1 -->
<g id="edge14" class="edge">
<title>3&#45;&gt;1</title>
<path fill="none" stroke="grey" stroke-width="2" d="M587.53,-431.95C576.73,-421.62 562.73,-408.15 550.5,-396 528.77,-374.42 504.43,-349.45 487.03,-331.46"/>
<polygon fill="grey" stroke="grey" stroke-width="2" points="489.49,-328.97 480.03,-324.21 484.46,-333.84 489.49,-328.97"/>
</g>
<!-- 6 -->
<g id="node7" class="node">
<title>6</title>
<path fill="none" stroke="#d86656" stroke-width="2" d="M876,-396C876,-396 803,-396 803,-396 797,-396 791,-390 791,-384 791,-384 791,-372 791,-372 791,-366 797,-360 803,-360 803,-360 876,-360 876,-360 882,-360 888,-366 888,-372 888,-372 888,-384 888,-384 888,-390 882,-396 876,-396"/>
<text text-anchor="middle" x="839.5" y="-375.5" font-family="sans" font-size="10.00">combine_strains</text>
</g>
<!-- 3&#45;&gt;6 -->
<g id="edge16" class="edge">
<title>3&#45;&gt;6</title>
<path fill="none" stroke="grey" stroke-width="2" d="M652.01,-435.09C689.07,-424 741.18,-408.41 781.06,-396.48"/>
<polygon fill="grey" stroke="grey" stroke-width="2" points="782.08,-399.83 790.66,-393.61 780.08,-393.12 782.08,-399.83"/>
</g>
<!-- 10 -->
<g id="node11" class="node">
<title>10</title>
<path fill="none" stroke="#70d856" stroke-width="2" d="M617.5,-324C617.5,-324 553.5,-324 553.5,-324 547.5,-324 541.5,-318 541.5,-312 541.5,-312 541.5,-300 541.5,-300 541.5,-294 547.5,-288 553.5,-288 553.5,-288 617.5,-288 617.5,-288 623.5,-288 629.5,-294 629.5,-300 629.5,-300 629.5,-312 629.5,-312 629.5,-318 623.5,-324 617.5,-324"/>
<text text-anchor="middle" x="585.5" y="-303.5" font-family="sans" font-size="10.00">plot_assembly</text>
</g>
<!-- 3&#45;&gt;10 -->
<g id="edge22" class="edge">
<title>3&#45;&gt;10</title>
<path fill="none" stroke="grey" stroke-width="2" d="M583.79,-431.79C573.74,-422.41 562.86,-409.9 557.5,-396 549.46,-375.15 558.22,-350.93 568,-333.02"/>
<polygon fill="grey" stroke="grey" stroke-width="2" points="571.09,-334.68 573.13,-324.28 565.05,-331.14 571.09,-334.68"/>
</g>
<!-- 11 -->
<g id="node12" class="node">
<title>11</title>
<path fill="none" stroke="#56a2d8" stroke-width="2" d="M632.5,-396C632.5,-396 578.5,-396 578.5,-396 572.5,-396 566.5,-390 566.5,-384 566.5,-384 566.5,-372 566.5,-372 566.5,-366 572.5,-360 578.5,-360 578.5,-360 632.5,-360 632.5,-360 638.5,-360 644.5,-366 644.5,-372 644.5,-372 644.5,-384 644.5,-384 644.5,-390 638.5,-396 632.5,-396"/>
<text text-anchor="middle" x="605.5" y="-375.5" font-family="sans" font-size="10.00">quast_report</text>
</g>
<!-- 3&#45;&gt;11 -->
<g id="edge23" class="edge">
<title>3&#45;&gt;11</title>
<path fill="none" stroke="grey" stroke-width="2" d="M605.5,-431.7C605.5,-423.98 605.5,-414.71 605.5,-406.11"/>
<polygon fill="grey" stroke="grey" stroke-width="2" points="609,-406.1 605.5,-396.1 602,-406.1 609,-406.1"/>
</g>
<!-- 3&#45;&gt;14 -->
<g id="edge27" class="edge">
<title>3&#45;&gt;14</title>
<path fill="none" stroke="grey" stroke-width="2" d="M652.3,-444.29C683.51,-438.45 722.39,-425.35 742.5,-396 755.02,-377.73 749.14,-352.5 741.36,-333.57"/>
<polygon fill="grey" stroke="grey" stroke-width="2" points="744.5,-332 737.21,-324.31 738.11,-334.87 744.5,-332"/>
</g>
<!-- 4 -->
<g id="node5" class="node">
<title>4</title>
<path fill="none" stroke="#d88556" stroke-width="2" d="M1045.5,-108C1045.5,-108 965.5,-108 965.5,-108 959.5,-108 953.5,-102 953.5,-96 953.5,-96 953.5,-84 953.5,-84 953.5,-78 959.5,-72 965.5,-72 965.5,-72 1045.5,-72 1045.5,-72 1051.5,-72 1057.5,-78 1057.5,-84 1057.5,-84 1057.5,-96 1057.5,-96 1057.5,-102 1051.5,-108 1045.5,-108"/>
<text text-anchor="middle" x="1005.5" y="-87.5" font-family="sans" font-size="10.00">plot_matrix_rDNA</text>
</g>
<!-- 4&#45;&gt;0 -->
<g id="edge6" class="edge">
<title>4&#45;&gt;0</title>
<path fill="none" stroke="grey" stroke-width="2" d="M953.37,-75.07C948.69,-73.98 944.02,-72.93 939.5,-72 830.86,-49.57 700.89,-31.73 638.11,-23.67"/>
<polygon fill="grey" stroke="grey" stroke-width="2" points="638.27,-20.16 627.91,-22.37 637.38,-27.1 638.27,-20.16"/>
</g>
<!-- 5 -->
<g id="node6" class="node">
<title>5</title>
<path fill="none" stroke="#d89556" stroke-width="2" d="M961,-324C961,-324 880,-324 880,-324 874,-324 868,-318 868,-312 868,-312 868,-300 868,-300 868,-294 874,-288 880,-288 880,-288 961,-288 961,-288 967,-288 973,-294 973,-300 973,-300 973,-312 973,-312 973,-318 967,-324 961,-324"/>
<text text-anchor="middle" x="920.5" y="-303.5" font-family="sans" font-size="10.00">mcscanx_amoeba</text>
</g>
<!-- 5&#45;&gt;0 -->
<g id="edge12" class="edge">
<title>5&#45;&gt;0</title>
<path fill="none" stroke="grey" stroke-width="2" d="M922.25,-287.57C924.57,-256.93 926.04,-192.1 903.5,-144 884.56,-103.59 872.42,-93.85 833.5,-72 770.78,-36.79 686.14,-24.96 638.04,-20.99"/>
<polygon fill="grey" stroke="grey" stroke-width="2" points="638.01,-17.48 627.78,-20.22 637.49,-24.46 638.01,-17.48"/>
</g>
<!-- 9 -->
<g id="node10" class="node">
<title>9</title>
<path fill="none" stroke="#d87556" stroke-width="2" d="M885.5,-252C885.5,-252 837.5,-252 837.5,-252 831.5,-252 825.5,-246 825.5,-240 825.5,-240 825.5,-228 825.5,-228 825.5,-222 831.5,-216 837.5,-216 837.5,-216 885.5,-216 885.5,-216 891.5,-216 897.5,-222 897.5,-228 897.5,-228 897.5,-240 897.5,-240 897.5,-246 891.5,-252 885.5,-252"/>
<text text-anchor="middle" x="861.5" y="-231.5" font-family="sans" font-size="10.00">prep_circos</text>
</g>
<!-- 5&#45;&gt;9 -->
<g id="edge21" class="edge">
<title>5&#45;&gt;9</title>
<path fill="none" stroke="grey" stroke-width="2" d="M905.92,-287.7C898.84,-279.3 890.22,-269.07 882.45,-259.86"/>
<polygon fill="grey" stroke="grey" stroke-width="2" points="885.04,-257.49 875.92,-252.1 879.69,-262.01 885.04,-257.49"/>
</g>
<!-- 6&#45;&gt;5 -->
<g id="edge15" class="edge">
<title>6&#45;&gt;5</title>
<path fill="none" stroke="grey" stroke-width="2" d="M859.52,-359.7C869.63,-350.97 882.04,-340.24 893.02,-330.75"/>
<polygon fill="grey" stroke="grey" stroke-width="2" points="895.43,-333.29 900.71,-324.1 890.85,-327.99 895.43,-333.29"/>
</g>
<!-- 7 -->
<g id="node8" class="node">
<title>7</title>
<path fill="none" stroke="#d8ac56" stroke-width="2" d="M812.5,-108C812.5,-108 782.5,-108 782.5,-108 776.5,-108 770.5,-102 770.5,-96 770.5,-96 770.5,-84 770.5,-84 770.5,-78 776.5,-72 782.5,-72 782.5,-72 812.5,-72 812.5,-72 818.5,-72 824.5,-78 824.5,-84 824.5,-84 824.5,-96 824.5,-96 824.5,-102 818.5,-108 812.5,-108"/>
<text text-anchor="middle" x="797.5" y="-87.5" font-family="sans" font-size="10.00">circos</text>
</g>
<!-- 6&#45;&gt;7 -->
<g id="edge18" class="edge">
<title>6&#45;&gt;7</title>
<path fill="none" stroke="grey" stroke-width="2" d="M835.95,-359.67C831.09,-335.59 822.33,-290.62 816.5,-252 809.45,-205.24 803.47,-150.51 800.19,-118.42"/>
<polygon fill="grey" stroke="grey" stroke-width="2" points="803.67,-118.04 799.19,-108.44 796.71,-118.74 803.67,-118.04"/>
</g>
<!-- 6&#45;&gt;9 -->
<g id="edge20" class="edge">
<title>6&#45;&gt;9</title>
<path fill="none" stroke="grey" stroke-width="2" d="M842.15,-359.87C845.9,-335.67 852.79,-291.21 857.26,-262.39"/>
<polygon fill="grey" stroke="grey" stroke-width="2" points="860.76,-262.61 858.84,-252.19 853.85,-261.54 860.76,-262.61"/>
</g>
<!-- 7&#45;&gt;0 -->
<g id="edge3" class="edge">
<title>7&#45;&gt;0</title>
<path fill="none" stroke="grey" stroke-width="2" d="M770.11,-79.27C735.56,-66.99 676.02,-45.83 637.46,-32.13"/>
<polygon fill="grey" stroke="grey" stroke-width="2" points="638.25,-28.7 627.66,-28.65 635.91,-35.3 638.25,-28.7"/>
</g>
<!-- 8 -->
<g id="node9" class="node">
<title>8</title>
<path fill="none" stroke="#5682d8" stroke-width="2" d="M882.5,-180C882.5,-180 838.5,-180 838.5,-180 832.5,-180 826.5,-174 826.5,-168 826.5,-168 826.5,-156 826.5,-156 826.5,-150 832.5,-144 838.5,-144 838.5,-144 882.5,-144 882.5,-144 888.5,-144 894.5,-150 894.5,-156 894.5,-156 894.5,-168 894.5,-168 894.5,-174 888.5,-180 882.5,-180"/>
<text text-anchor="middle" x="860.5" y="-159.5" font-family="sans" font-size="10.00">filter_links</text>
</g>
<!-- 8&#45;&gt;7 -->
<g id="edge17" class="edge">
<title>8&#45;&gt;7</title>
<path fill="none" stroke="grey" stroke-width="2" d="M844.93,-143.7C837.3,-135.22 827.98,-124.86 819.62,-115.58"/>
<polygon fill="grey" stroke="grey" stroke-width="2" points="822.19,-113.2 812.89,-108.1 816.98,-117.88 822.19,-113.2"/>
</g>
<!-- 9&#45;&gt;8 -->
<g id="edge19" class="edge">
<title>9&#45;&gt;8</title>
<path fill="none" stroke="grey" stroke-width="2" d="M861.25,-215.7C861.14,-207.98 861.01,-198.71 860.89,-190.11"/>
<polygon fill="grey" stroke="grey" stroke-width="2" points="864.39,-190.05 860.74,-180.1 857.39,-190.15 864.39,-190.05"/>
</g>
<!-- 10&#45;&gt;0 -->
<g id="edge9" class="edge">
<title>10&#45;&gt;0</title>
<path fill="none" stroke="grey" stroke-width="2" d="M589.46,-287.92C591.68,-277.59 594.24,-264.11 595.5,-252 603.24,-177.8 602.43,-89.62 601.36,-46.09"/>
<polygon fill="grey" stroke="grey" stroke-width="2" points="604.86,-45.92 601.09,-36.02 597.86,-46.11 604.86,-45.92"/>
</g>
<!-- 11&#45;&gt;0 -->
<g id="edge4" class="edge">
<title>11&#45;&gt;0</title>
<path fill="none" stroke="grey" stroke-width="2" d="M618.43,-359.68C625.31,-349.7 633.39,-336.66 638.5,-324 653.64,-286.49 657.5,-275.45 657.5,-235 657.5,-235 657.5,-235 657.5,-161 657.5,-117.8 634.5,-72.19 617.72,-44.66"/>
<polygon fill="grey" stroke="grey" stroke-width="2" points="620.59,-42.65 612.31,-36.04 614.67,-46.37 620.59,-42.65"/>
</g>
<!-- 12 -->
<g id="node13" class="node">
<title>12</title>
<path fill="none" stroke="#d8a456" stroke-width="2" d="M747,-180C747,-180 702,-180 702,-180 696,-180 690,-174 690,-168 690,-168 690,-156 690,-156 690,-150 696,-144 702,-144 702,-144 747,-144 747,-144 753,-144 759,-150 759,-156 759,-156 759,-168 759,-168 759,-174 753,-180 747,-180"/>
<text text-anchor="middle" x="724.5" y="-159.5" font-family="sans" font-size="10.00">plot_busco</text>
</g>
<!-- 12&#45;&gt;0 -->
<g id="edge2" class="edge">
<title>12&#45;&gt;0</title>
<path fill="none" stroke="grey" stroke-width="2" d="M716.86,-143.96C707.83,-125.02 691.48,-94.18 671.5,-72 661.31,-60.69 648.39,-50.2 636.37,-41.59"/>
<polygon fill="grey" stroke="grey" stroke-width="2" points="638.04,-38.49 627.82,-35.67 634.05,-44.24 638.04,-38.49"/>
</g>
<!-- 13 -->
<g id="node14" class="node">
<title>13</title>
<path fill="none" stroke="#78d856" stroke-width="2" d="M757,-252C757,-252 698,-252 698,-252 692,-252 686,-246 686,-240 686,-240 686,-228 686,-228 686,-222 692,-216 698,-216 698,-216 757,-216 757,-216 763,-216 769,-222 769,-228 769,-228 769,-240 769,-240 769,-246 763,-252 757,-252"/>
<text text-anchor="middle" x="727.5" y="-231.5" font-family="sans" font-size="10.00">format_busco</text>
</g>
<!-- 13&#45;&gt;12 -->
<g id="edge24" class="edge">
<title>13&#45;&gt;12</title>
<path fill="none" stroke="grey" stroke-width="2" d="M726.76,-215.7C726.43,-207.98 726.03,-198.71 725.66,-190.11"/>
<polygon fill="grey" stroke="grey" stroke-width="2" points="729.16,-189.95 725.23,-180.1 722.16,-190.25 729.16,-189.95"/>
</g>
<!-- 14&#45;&gt;13 -->
<g id="edge25" class="edge">
<title>14&#45;&gt;13</title>
<path fill="none" stroke="grey" stroke-width="2" d="M727.5,-287.7C727.5,-279.98 727.5,-270.71 727.5,-262.11"/>
<polygon fill="grey" stroke="grey" stroke-width="2" points="731,-262.1 727.5,-252.1 724,-262.1 731,-262.1"/>
</g>
<!-- 15 -->
<g id="node16" class="node">
<title>15</title>
<path fill="none" stroke="#56d89a" stroke-width="2" d="M131,-108C131,-108 12,-108 12,-108 6,-108 0,-102 0,-96 0,-96 0,-84 0,-84 0,-78 6,-72 12,-72 12,-72 131,-72 131,-72 137,-72 143,-78 143,-84 143,-84 143,-96 143,-96 143,-102 137,-108 131,-108"/>
<text text-anchor="middle" x="71.5" y="-87.5" font-family="sans" font-size="10.00">aggregate_virus_matches</text>
</g>
<!-- 15&#45;&gt;0 -->
<g id="edge11" class="edge">
<title>15&#45;&gt;0</title>
<path fill="none" stroke="grey" stroke-width="2" d="M143.43,-73.56C146.49,-73.01 149.52,-72.49 152.5,-72 304.01,-47.19 486.18,-29.3 563.21,-22.28"/>
<polygon fill="grey" stroke="grey" stroke-width="2" points="563.72,-25.75 573.37,-21.36 563.09,-18.77 563.72,-25.75"/>
</g>
<!-- 16 -->
<g id="node17" class="node">
<title>16</title>
<path fill="none" stroke="#b6d856" stroke-width="2" d="M268.5,-252C268.5,-252 172.5,-252 172.5,-252 166.5,-252 160.5,-246 160.5,-240 160.5,-240 160.5,-228 160.5,-228 160.5,-222 166.5,-216 172.5,-216 172.5,-216 268.5,-216 268.5,-216 274.5,-216 280.5,-222 280.5,-228 280.5,-228 280.5,-240 280.5,-240 280.5,-246 274.5,-252 268.5,-252"/>
<text text-anchor="middle" x="220.5" y="-231.5" font-family="sans" font-size="10.00">parse_virus_matches</text>
</g>
<!-- 16&#45;&gt;15 -->
<g id="edge28" class="edge">
<title>16&#45;&gt;15</title>
<path fill="none" stroke="grey" stroke-width="2" d="M193.67,-215.77C179.34,-206.03 161.76,-193.18 147.5,-180 126.15,-160.27 104.92,-134.79 90.35,-116.15"/>
<polygon fill="grey" stroke="grey" stroke-width="2" points="93.03,-113.89 84.15,-108.12 87.49,-118.17 93.03,-113.89"/>
</g>
<!-- 20 -->
<g id="node21" class="node">
<title>20</title>
<path fill="none" stroke="#d6d856" stroke-width="2" d="M276,-180C276,-180 169,-180 169,-180 163,-180 157,-174 157,-168 157,-168 157,-156 157,-156 157,-150 163,-144 169,-144 169,-144 276,-144 276,-144 282,-144 288,-150 288,-156 288,-156 288,-168 288,-168 288,-174 282,-180 276,-180"/>
<text text-anchor="middle" x="222.5" y="-159.5" font-family="sans" font-size="10.00">merge_virus_segments</text>
</g>
<!-- 16&#45;&gt;20 -->
<g id="edge32" class="edge">
<title>16&#45;&gt;20</title>
<path fill="none" stroke="grey" stroke-width="2" d="M220.99,-215.7C221.21,-207.98 221.48,-198.71 221.73,-190.11"/>
<polygon fill="grey" stroke="grey" stroke-width="2" points="225.22,-190.2 222.01,-180.1 218.23,-190 225.22,-190.2"/>
</g>
<!-- 29 -->
<g id="node30" class="node">
<title>29</title>
<path fill="none" stroke="#56d8a9" stroke-width="2" d="M401.5,-180C401.5,-180 345.5,-180 345.5,-180 339.5,-180 333.5,-174 333.5,-168 333.5,-168 333.5,-156 333.5,-156 333.5,-150 339.5,-144 345.5,-144 345.5,-144 401.5,-144 401.5,-144 407.5,-144 413.5,-150 413.5,-156 413.5,-156 413.5,-168 413.5,-168 413.5,-174 407.5,-180 401.5,-180"/>
<text text-anchor="middle" x="373.5" y="-159.5" font-family="sans" font-size="10.00">agg_features</text>
</g>
<!-- 16&#45;&gt;29 -->
<g id="edge42" class="edge">
<title>16&#45;&gt;29</title>
<path fill="none" stroke="grey" stroke-width="2" d="M257.93,-215.88C278.75,-206.35 304.85,-194.41 326.98,-184.28"/>
<polygon fill="grey" stroke="grey" stroke-width="2" points="328.56,-187.41 336.19,-180.07 325.64,-181.05 328.56,-187.41"/>
</g>
<!-- 17 -->
<g id="node18" class="node">
<title>17</title>
<path fill="none" stroke="#56d8d8" stroke-width="2" d="M263,-324C263,-324 174,-324 174,-324 168,-324 162,-318 162,-312 162,-312 162,-300 162,-300 162,-294 168,-288 174,-288 174,-288 263,-288 263,-288 269,-288 275,-294 275,-300 275,-300 275,-312 275,-312 275,-318 269,-324 263,-324"/>
<text text-anchor="middle" x="218.5" y="-303.5" font-family="sans" font-size="10.00">map_virus_amoeba</text>
</g>
<!-- 17&#45;&gt;16 -->
<g id="edge29" class="edge">
<title>17&#45;&gt;16</title>
<path fill="none" stroke="grey" stroke-width="2" d="M218.99,-287.7C219.21,-279.98 219.48,-270.71 219.73,-262.11"/>
<polygon fill="grey" stroke="grey" stroke-width="2" points="223.22,-262.2 220.01,-252.1 216.23,-262 223.22,-262.2"/>
</g>
<!-- 18 -->
<g id="node19" class="node">
<title>18</title>
<path fill="none" stroke="#d8cb56" stroke-width="2" d="M240.5,-396C240.5,-396 196.5,-396 196.5,-396 190.5,-396 184.5,-390 184.5,-384 184.5,-384 184.5,-372 184.5,-372 184.5,-366 190.5,-360 196.5,-360 196.5,-360 240.5,-360 240.5,-360 246.5,-360 252.5,-366 252.5,-372 252.5,-372 252.5,-384 252.5,-384 252.5,-390 246.5,-396 240.5,-396"/>
<text text-anchor="middle" x="218.5" y="-375.5" font-family="sans" font-size="10.00">get_viruse</text>
</g>
<!-- 18&#45;&gt;17 -->
<g id="edge30" class="edge">
<title>18&#45;&gt;17</title>
<path fill="none" stroke="grey" stroke-width="2" d="M218.5,-359.7C218.5,-351.98 218.5,-342.71 218.5,-334.11"/>
<polygon fill="grey" stroke="grey" stroke-width="2" points="222,-334.1 218.5,-324.1 215,-334.1 222,-334.1"/>
</g>
<!-- 19 -->
<g id="node20" class="node">
<title>19</title>
<path fill="none" stroke="#56d86b" stroke-width="2" d="M405,-108C405,-108 314,-108 314,-108 308,-108 302,-102 302,-96 302,-96 302,-84 302,-84 302,-78 308,-72 314,-72 314,-72 405,-72 405,-72 411,-72 417,-78 417,-84 417,-84 417,-96 417,-96 417,-102 411,-108 405,-108"/>
<text text-anchor="middle" x="359.5" y="-87.5" font-family="sans" font-size="10.00">viral_regions_pileup</text>
</g>
<!-- 19&#45;&gt;0 -->
<g id="edge10" class="edge">
<title>19&#45;&gt;0</title>
<path fill="none" stroke="grey" stroke-width="2" d="M417.23,-72.23C462.61,-59.05 524.46,-41.09 563.44,-29.76"/>
<polygon fill="grey" stroke="grey" stroke-width="2" points="564.69,-33.05 573.31,-26.9 562.74,-26.32 564.69,-33.05"/>
</g>
<!-- 20&#45;&gt;19 -->
<g id="edge31" class="edge">
<title>20&#45;&gt;19</title>
<path fill="none" stroke="grey" stroke-width="2" d="M256.01,-143.88C274.34,-134.51 297.24,-122.81 316.83,-112.8"/>
<polygon fill="grey" stroke="grey" stroke-width="2" points="318.54,-115.86 325.86,-108.19 315.36,-109.62 318.54,-115.86"/>
</g>
<!-- 21 -->
<g id="node22" class="node">
<title>21</title>
<path fill="none" stroke="#56c1d8" stroke-width="2" d="M271.5,-108C271.5,-108 173.5,-108 173.5,-108 167.5,-108 161.5,-102 161.5,-96 161.5,-96 161.5,-84 161.5,-84 161.5,-78 167.5,-72 173.5,-72 173.5,-72 271.5,-72 271.5,-72 277.5,-72 283.5,-78 283.5,-84 283.5,-84 283.5,-96 283.5,-96 283.5,-102 277.5,-108 271.5,-108"/>
<text text-anchor="middle" x="222.5" y="-87.5" font-family="sans" font-size="10.00">viral_regions_borders</text>
</g>
<!-- 20&#45;&gt;21 -->
<g id="edge33" class="edge">
<title>20&#45;&gt;21</title>
<path fill="none" stroke="grey" stroke-width="2" d="M222.5,-143.7C222.5,-135.98 222.5,-126.71 222.5,-118.11"/>
<polygon fill="grey" stroke="grey" stroke-width="2" points="226,-118.1 222.5,-108.1 219,-118.1 226,-118.1"/>
</g>
<!-- 21&#45;&gt;0 -->
<g id="edge1" class="edge">
<title>21&#45;&gt;0</title>
<path fill="none" stroke="grey" stroke-width="2" d="M283.53,-73.92C286.56,-73.25 289.56,-72.61 292.5,-72 389.53,-51.89 504.87,-33.5 563.02,-24.61"/>
<polygon fill="grey" stroke="grey" stroke-width="2" points="563.83,-28.03 573.19,-23.06 562.78,-21.11 563.83,-28.03"/>
</g>
<!-- 22 -->
<g id="node23" class="node">
<title>22</title>
<path fill="none" stroke="#56d8b9" stroke-width="2" d="M541.5,-180C541.5,-180 457.5,-180 457.5,-180 451.5,-180 445.5,-174 445.5,-168 445.5,-168 445.5,-156 445.5,-156 445.5,-150 451.5,-144 457.5,-144 457.5,-144 541.5,-144 541.5,-144 547.5,-144 553.5,-150 553.5,-156 553.5,-156 553.5,-168 553.5,-168 553.5,-174 547.5,-180 541.5,-180"/>
<text text-anchor="middle" x="499.5" y="-159.5" font-family="sans" font-size="10.00">windows_inter_hgt</text>
</g>
<!-- 22&#45;&gt;0 -->
<g id="edge5" class="edge">
<title>22&#45;&gt;0</title>
<path fill="none" stroke="grey" stroke-width="2" d="M511.68,-143.87C529.28,-119.14 561.92,-73.24 582.35,-44.51"/>
<polygon fill="grey" stroke="grey" stroke-width="2" points="585.33,-46.37 588.27,-36.19 579.63,-42.31 585.33,-46.37"/>
</g>
<!-- 23 -->
<g id="node24" class="node">
<title>23</title>
<path fill="none" stroke="#56d87b" stroke-width="2" d="M541,-252C541,-252 458,-252 458,-252 452,-252 446,-246 446,-240 446,-240 446,-228 446,-228 446,-222 452,-216 458,-216 458,-216 541,-216 541,-216 547,-216 553,-222 553,-228 553,-228 553,-240 553,-240 553,-246 547,-252 541,-252"/>
<text text-anchor="middle" x="499.5" y="-231.5" font-family="sans" font-size="10.00">genomic_windows</text>
</g>
<!-- 23&#45;&gt;22 -->
<g id="edge34" class="edge">
<title>23&#45;&gt;22</title>
<path fill="none" stroke="grey" stroke-width="2" d="M499.5,-215.7C499.5,-207.98 499.5,-198.71 499.5,-190.11"/>
<polygon fill="grey" stroke="grey" stroke-width="2" points="503,-190.1 499.5,-180.1 496,-190.1 503,-190.1"/>
</g>
<!-- 24&#45;&gt;22 -->
<g id="edge35" class="edge">
<title>24&#45;&gt;22</title>
<path fill="none" stroke="grey" stroke-width="2" d="M404.32,-215.88C420.95,-206.64 441.66,-195.13 459.52,-185.21"/>
<polygon fill="grey" stroke="grey" stroke-width="2" points="461.52,-188.11 468.56,-180.19 458.12,-181.99 461.52,-188.11"/>
</g>
<!-- 24&#45;&gt;29 -->
<g id="edge41" class="edge">
<title>24&#45;&gt;29</title>
<path fill="none" stroke="grey" stroke-width="2" d="M373.5,-215.7C373.5,-207.98 373.5,-198.71 373.5,-190.11"/>
<polygon fill="grey" stroke="grey" stroke-width="2" points="377,-190.1 373.5,-180.1 370,-190.1 377,-190.1"/>
</g>
<!-- 25 -->
<g id="node26" class="node">
<title>25</title>
<path fill="none" stroke="#97d856" stroke-width="2" d="M373.5,-324C373.5,-324 305.5,-324 305.5,-324 299.5,-324 293.5,-318 293.5,-312 293.5,-312 293.5,-300 293.5,-300 293.5,-294 299.5,-288 305.5,-288 305.5,-288 373.5,-288 373.5,-288 379.5,-288 385.5,-294 385.5,-300 385.5,-300 385.5,-312 385.5,-312 385.5,-318 379.5,-324 373.5,-324"/>
<text text-anchor="middle" x="339.5" y="-303.5" font-family="sans" font-size="10.00">filter_blast_hits</text>
</g>
<!-- 25&#45;&gt;24 -->
<g id="edge36" class="edge">
<title>25&#45;&gt;24</title>
<path fill="none" stroke="grey" stroke-width="2" d="M347.9,-287.7C351.77,-279.73 356.45,-270.1 360.74,-261.26"/>
<polygon fill="grey" stroke="grey" stroke-width="2" points="363.97,-262.63 365.19,-252.1 357.67,-259.57 363.97,-262.63"/>
</g>
<!-- 26 -->
<g id="node27" class="node">
<title>26</title>
<path fill="none" stroke="#61d856" stroke-width="2" d="M383.5,-396C383.5,-396 295.5,-396 295.5,-396 289.5,-396 283.5,-390 283.5,-384 283.5,-384 283.5,-372 283.5,-372 283.5,-366 289.5,-360 295.5,-360 295.5,-360 383.5,-360 383.5,-360 389.5,-360 395.5,-366 395.5,-372 395.5,-372 395.5,-384 395.5,-384 395.5,-390 389.5,-396 383.5,-396"/>
<text text-anchor="middle" x="339.5" y="-375.5" font-family="sans" font-size="10.00">blast_v1_hgt_vs_ac</text>
</g>
<!-- 26&#45;&gt;25 -->
<g id="edge38" class="edge">
<title>26&#45;&gt;25</title>
<path fill="none" stroke="grey" stroke-width="2" d="M339.5,-359.7C339.5,-351.98 339.5,-342.71 339.5,-334.11"/>
<polygon fill="grey" stroke="grey" stroke-width="2" points="343,-334.1 339.5,-324.1 336,-334.1 343,-334.1"/>
</g>
<!-- 27 -->
<g id="node28" class="node">
<title>27</title>
<path fill="none" stroke="#56d88a" stroke-width="2" d="M370.5,-468C370.5,-468 308.5,-468 308.5,-468 302.5,-468 296.5,-462 296.5,-456 296.5,-456 296.5,-444 296.5,-444 296.5,-438 302.5,-432 308.5,-432 308.5,-432 370.5,-432 370.5,-432 376.5,-432 382.5,-438 382.5,-444 382.5,-444 382.5,-456 382.5,-456 382.5,-462 376.5,-468 370.5,-468"/>
<text text-anchor="middle" x="339.5" y="-447.5" font-family="sans" font-size="10.00">get_v1_hgt_fa</text>
</g>
<!-- 27&#45;&gt;26 -->
<g id="edge39" class="edge">
<title>27&#45;&gt;26</title>
<path fill="none" stroke="grey" stroke-width="2" d="M339.5,-431.7C339.5,-423.98 339.5,-414.71 339.5,-406.11"/>
<polygon fill="grey" stroke="grey" stroke-width="2" points="343,-406.1 339.5,-396.1 336,-406.1 343,-406.1"/>
</g>
<!-- 28 -->
<g id="node29" class="node">
<title>28</title>
<path fill="none" stroke="#5663d8" stroke-width="2" d="M503.5,-108C503.5,-108 447.5,-108 447.5,-108 441.5,-108 435.5,-102 435.5,-96 435.5,-96 435.5,-84 435.5,-84 435.5,-78 441.5,-72 447.5,-72 447.5,-72 503.5,-72 503.5,-72 509.5,-72 515.5,-78 515.5,-84 515.5,-84 515.5,-96 515.5,-96 515.5,-102 509.5,-108 503.5,-108"/>
<text text-anchor="middle" x="475.5" y="-87.5" font-family="sans" font-size="10.00">viz_scaffolds</text>
</g>
<!-- 28&#45;&gt;0 -->
<g id="edge8" class="edge">
<title>28&#45;&gt;0</title>
<path fill="none" stroke="grey" stroke-width="2" d="M506.08,-71.88C523.72,-62 546,-49.52 564.48,-39.17"/>
<polygon fill="grey" stroke="grey" stroke-width="2" points="566.2,-42.22 573.22,-34.28 562.78,-36.11 566.2,-42.22"/>
</g>
<!-- 29&#45;&gt;28 -->
<g id="edge40" class="edge">
<title>29&#45;&gt;28</title>
<path fill="none" stroke="grey" stroke-width="2" d="M398.45,-143.88C411.54,-134.89 427.76,-123.76 441.94,-114.03"/>
<polygon fill="grey" stroke="grey" stroke-width="2" points="444.19,-116.73 450.45,-108.19 440.23,-110.96 444.19,-116.73"/>
</g>
</g>
</svg>
