<?xml version="1.0" encoding="UTF-8" standalone="no"?>
<!DOCTYPE svg PUBLIC "-//W3C//DTD SVG 1.1//EN"
 "http://www.w3.org/Graphics/SVG/1.1/DTD/svg11.dtd">
<!-- Generated by graphviz version 2.49.0 (20210829.0051)
 -->
<!-- Title: snakemake_dag Pages: 1 -->
<svg width="1351pt" height="548pt"
 viewBox="0.00 0.00 1351.00 548.00" xmlns="http://www.w3.org/2000/svg" xmlns:xlink="http://www.w3.org/1999/xlink">
<g id="graph0" class="graph" transform="scale(1 1) rotate(0) translate(4 544)">
<title>snakemake_dag</title>
<polygon fill="white" stroke="transparent" points="-4,4 -4,-544 1347,-544 1347,4 -4,4"/>
<!-- 0 -->
<g id="node1" class="node">
<title>0</title>
<path fill="none" stroke="#56d8d8" stroke-width="2" d="M671,-36C671,-36 641,-36 641,-36 635,-36 629,-30 629,-24 629,-24 629,-12 629,-12 629,-6 635,0 641,0 641,0 671,0 671,0 677,0 683,-6 683,-12 683,-12 683,-24 683,-24 683,-30 677,-36 671,-36"/>
<text text-anchor="middle" x="656" y="-15.5" font-family="sans" font-size="10.00">all</text>
</g>
<!-- 1 -->
<g id="node2" class="node">
<title>1</title>
<path fill="none" stroke="#d6d856" stroke-width="2" d="M194.5,-108C194.5,-108 159.5,-108 159.5,-108 153.5,-108 147.5,-102 147.5,-96 147.5,-96 147.5,-84 147.5,-84 147.5,-78 153.5,-72 159.5,-72 159.5,-72 194.5,-72 194.5,-72 200.5,-72 206.5,-78 206.5,-84 206.5,-84 206.5,-96 206.5,-96 206.5,-102 200.5,-108 194.5,-108"/>
<text text-anchor="middle" x="177" y="-87.5" font-family="sans" font-size="10.00">GLOOME</text>
</g>
<!-- 1&#45;&gt;0 -->
<g id="edge14" class="edge">
<title>1&#45;&gt;0</title>
<path fill="none" stroke="grey" stroke-width="2" d="M206.7,-78.2C213.92,-75.88 221.68,-73.64 229,-72 370.75,-40.34 543.5,-26.2 618.39,-21.23"/>
<polygon fill="grey" stroke="grey" stroke-width="2" points="618.96,-24.7 628.71,-20.56 618.51,-17.71 618.96,-24.7"/>
</g>
<!-- 2 -->
<g id="node3" class="node">
<title>2</title>
<path fill="none" stroke="#56d892" stroke-width="2" d="M217,-180C217,-180 117,-180 117,-180 111,-180 105,-174 105,-168 105,-168 105,-156 105,-156 105,-150 111,-144 117,-144 117,-144 217,-144 217,-144 223,-144 229,-150 229,-156 229,-156 229,-168 229,-168 229,-174 223,-180 217,-180"/>
<text text-anchor="middle" x="167" y="-159.5" font-family="sans" font-size="10.00">format_presence_mat</text>
</g>
<!-- 2&#45;&gt;1 -->
<g id="edge15" class="edge">
<title>2&#45;&gt;1</title>
<path fill="none" stroke="grey" stroke-width="2" d="M169.47,-143.7C170.57,-135.98 171.9,-126.71 173.13,-118.11"/>
<polygon fill="grey" stroke="grey" stroke-width="2" points="176.61,-118.5 174.56,-108.1 169.68,-117.51 176.61,-118.5"/>
</g>
<!-- 3 -->
<g id="node4" class="node">
<title>3</title>
<path fill="none" stroke="#5682d8" stroke-width="2" d="M240,-252C240,-252 194,-252 194,-252 188,-252 182,-246 182,-240 182,-240 182,-228 182,-228 182,-222 188,-216 194,-216 194,-216 240,-216 240,-216 246,-216 252,-222 252,-228 252,-228 252,-240 252,-240 252,-246 246,-252 240,-252"/>
<text text-anchor="middle" x="217" y="-231.5" font-family="sans" font-size="10.00">orthofinder</text>
</g>
<!-- 3&#45;&gt;2 -->
<g id="edge16" class="edge">
<title>3&#45;&gt;2</title>
<path fill="none" stroke="grey" stroke-width="2" d="M204.64,-215.7C198.77,-207.47 191.63,-197.48 185.16,-188.42"/>
<polygon fill="grey" stroke="grey" stroke-width="2" points="187.88,-186.21 179.22,-180.1 182.18,-190.28 187.88,-186.21"/>
</g>
<!-- 19 -->
<g id="node20" class="node">
<title>19</title>
<path fill="none" stroke="#56b1d8" stroke-width="2" d="M350.5,-180C350.5,-180 259.5,-180 259.5,-180 253.5,-180 247.5,-174 247.5,-168 247.5,-168 247.5,-156 247.5,-156 247.5,-150 253.5,-144 259.5,-144 259.5,-144 350.5,-144 350.5,-144 356.5,-144 362.5,-150 362.5,-156 362.5,-156 362.5,-168 362.5,-168 362.5,-174 356.5,-180 350.5,-180"/>
<text text-anchor="middle" x="305" y="-159.5" font-family="sans" font-size="10.00">acastellanii_specific</text>
</g>
<!-- 3&#45;&gt;19 -->
<g id="edge37" class="edge">
<title>3&#45;&gt;19</title>
<path fill="none" stroke="grey" stroke-width="2" d="M238.75,-215.7C249.84,-206.88 263.47,-196.03 275.49,-186.47"/>
<polygon fill="grey" stroke="grey" stroke-width="2" points="277.85,-189.07 283.5,-180.1 273.49,-183.59 277.85,-189.07"/>
</g>
<!-- 4 -->
<g id="node5" class="node">
<title>4</title>
<path fill="none" stroke="#9fd856" stroke-width="2" d="M209,-324C209,-324 135,-324 135,-324 129,-324 123,-318 123,-312 123,-312 123,-300 123,-300 123,-294 129,-288 135,-288 135,-288 209,-288 209,-288 215,-288 221,-294 221,-300 221,-300 221,-312 221,-312 221,-318 215,-324 209,-324"/>
<text text-anchor="middle" x="172" y="-303.5" font-family="sans" font-size="10.00">cdhit_proteomes</text>
</g>
<!-- 4&#45;&gt;3 -->
<g id="edge17" class="edge">
<title>4&#45;&gt;3</title>
<path fill="none" stroke="grey" stroke-width="2" d="M183.12,-287.7C188.36,-279.56 194.7,-269.69 200.48,-260.7"/>
<polygon fill="grey" stroke="grey" stroke-width="2" points="203.54,-262.41 206,-252.1 197.65,-258.62 203.54,-262.41"/>
</g>
<!-- 5 -->
<g id="node6" class="node">
<title>5</title>
<path fill="none" stroke="#d88556" stroke-width="2" d="M193.5,-396C193.5,-396 118.5,-396 118.5,-396 112.5,-396 106.5,-390 106.5,-384 106.5,-384 106.5,-372 106.5,-372 106.5,-366 112.5,-360 118.5,-360 118.5,-360 193.5,-360 193.5,-360 199.5,-360 205.5,-366 205.5,-372 205.5,-372 205.5,-384 205.5,-384 205.5,-390 199.5,-396 193.5,-396"/>
<text text-anchor="middle" x="156" y="-375.5" font-family="sans" font-size="10.00">fetch_proteomes</text>
</g>
<!-- 5&#45;&gt;4 -->
<g id="edge19" class="edge">
<title>5&#45;&gt;4</title>
<path fill="none" stroke="grey" stroke-width="2" d="M159.96,-359.7C161.72,-351.98 163.84,-342.71 165.8,-334.11"/>
<polygon fill="grey" stroke="grey" stroke-width="2" points="169.27,-334.63 168.09,-324.1 162.45,-333.07 169.27,-334.63"/>
</g>
<!-- 6 -->
<g id="node7" class="node">
<title>6</title>
<path fill="none" stroke="#d8b456" stroke-width="2" d="M352.5,-396C352.5,-396 235.5,-396 235.5,-396 229.5,-396 223.5,-390 223.5,-384 223.5,-384 223.5,-372 223.5,-372 223.5,-366 229.5,-360 235.5,-360 235.5,-360 352.5,-360 352.5,-360 358.5,-360 364.5,-366 364.5,-372 364.5,-372 364.5,-384 364.5,-384 364.5,-390 358.5,-396 352.5,-396"/>
<text text-anchor="middle" x="294" y="-375.5" font-family="sans" font-size="10.00">select_primary_transcript</text>
</g>
<!-- 6&#45;&gt;3 -->
<g id="edge18" class="edge">
<title>6&#45;&gt;3</title>
<path fill="none" stroke="grey" stroke-width="2" d="M284.71,-359.87C271.42,-335.35 246.84,-290.03 231.24,-261.26"/>
<polygon fill="grey" stroke="grey" stroke-width="2" points="234.16,-259.31 226.32,-252.19 228.01,-262.65 234.16,-259.31"/>
</g>
<!-- 7 -->
<g id="node8" class="node">
<title>7</title>
<path fill="none" stroke="#ced856" stroke-width="2" d="M540.5,-468C540.5,-468 471.5,-468 471.5,-468 465.5,-468 459.5,-462 459.5,-456 459.5,-456 459.5,-444 459.5,-444 459.5,-438 465.5,-432 471.5,-432 471.5,-432 540.5,-432 540.5,-432 546.5,-432 552.5,-438 552.5,-444 552.5,-444 552.5,-456 552.5,-456 552.5,-462 546.5,-468 540.5,-468"/>
<text text-anchor="middle" x="506" y="-447.5" font-family="sans" font-size="10.00">rename_entries</text>
</g>
<!-- 7&#45;&gt;6 -->
<g id="edge20" class="edge">
<title>7&#45;&gt;6</title>
<path fill="none" stroke="grey" stroke-width="2" d="M459.48,-433.64C428.86,-423.53 388.45,-410.19 355.23,-399.22"/>
<polygon fill="grey" stroke="grey" stroke-width="2" points="356.21,-395.86 345.62,-396.04 354.02,-402.5 356.21,-395.86"/>
</g>
<!-- 9 -->
<g id="node10" class="node">
<title>9</title>
<path fill="none" stroke="#70d856" stroke-width="2" d="M649.5,-324C649.5,-324 554.5,-324 554.5,-324 548.5,-324 542.5,-318 542.5,-312 542.5,-312 542.5,-300 542.5,-300 542.5,-294 548.5,-288 554.5,-288 554.5,-288 649.5,-288 649.5,-288 655.5,-288 661.5,-294 661.5,-300 661.5,-300 661.5,-312 661.5,-312 661.5,-318 655.5,-324 649.5,-324"/>
<text text-anchor="middle" x="602" y="-303.5" font-family="sans" font-size="10.00">amoeba_annot_stats</text>
</g>
<!-- 7&#45;&gt;9 -->
<g id="edge22" class="edge">
<title>7&#45;&gt;9</title>
<path fill="none" stroke="grey" stroke-width="2" d="M543.59,-431.97C558.69,-423.29 574.89,-411.29 585,-396 597.04,-377.79 601.02,-353.17 602.15,-334.44"/>
<polygon fill="grey" stroke="grey" stroke-width="2" points="605.65,-334.31 602.51,-324.19 598.66,-334.06 605.65,-334.31"/>
</g>
<!-- 13 -->
<g id="node14" class="node">
<title>13</title>
<path fill="none" stroke="#56d86b" stroke-width="2" d="M467.5,-396C467.5,-396 394.5,-396 394.5,-396 388.5,-396 382.5,-390 382.5,-384 382.5,-384 382.5,-372 382.5,-372 382.5,-366 388.5,-360 394.5,-360 394.5,-360 467.5,-360 467.5,-360 473.5,-360 479.5,-366 479.5,-372 479.5,-372 479.5,-384 479.5,-384 479.5,-390 473.5,-396 467.5,-396"/>
<text text-anchor="middle" x="431" y="-375.5" font-family="sans" font-size="10.00">combine_strains</text>
</g>
<!-- 7&#45;&gt;13 -->
<g id="edge27" class="edge">
<title>7&#45;&gt;13</title>
<path fill="none" stroke="grey" stroke-width="2" d="M487.46,-431.7C478.2,-423.05 466.84,-412.45 456.74,-403.03"/>
<polygon fill="grey" stroke="grey" stroke-width="2" points="459.02,-400.37 449.33,-396.1 454.25,-405.49 459.02,-400.37"/>
</g>
<!-- 17 -->
<g id="node18" class="node">
<title>17</title>
<path fill="none" stroke="#88d856" stroke-width="2" d="M76,-396C76,-396 12,-396 12,-396 6,-396 0,-390 0,-384 0,-384 0,-372 0,-372 0,-366 6,-360 12,-360 12,-360 76,-360 76,-360 82,-360 88,-366 88,-372 88,-372 88,-384 88,-384 88,-390 82,-396 76,-396"/>
<text text-anchor="middle" x="44" y="-375.5" font-family="sans" font-size="10.00">plot_assembly</text>
</g>
<!-- 7&#45;&gt;17 -->
<g id="edge34" class="edge">
<title>7&#45;&gt;17</title>
<path fill="none" stroke="grey" stroke-width="2" d="M459.21,-445.71C384.59,-439.87 234.04,-425.62 98.25,-396.05"/>
<polygon fill="grey" stroke="grey" stroke-width="2" points="98.6,-392.54 88.08,-393.8 97.09,-399.38 98.6,-392.54"/>
</g>
<!-- 20 -->
<g id="node21" class="node">
<title>20</title>
<path fill="none" stroke="#56d8b1" stroke-width="2" d="M564,-396C564,-396 510,-396 510,-396 504,-396 498,-390 498,-384 498,-384 498,-372 498,-372 498,-366 504,-360 510,-360 510,-360 564,-360 564,-360 570,-360 576,-366 576,-372 576,-372 576,-384 576,-384 576,-390 570,-396 564,-396"/>
<text text-anchor="middle" x="537" y="-375.5" font-family="sans" font-size="10.00">quast_report</text>
</g>
<!-- 7&#45;&gt;20 -->
<g id="edge38" class="edge">
<title>7&#45;&gt;20</title>
<path fill="none" stroke="grey" stroke-width="2" d="M513.66,-431.7C517.19,-423.73 521.46,-414.1 525.37,-405.26"/>
<polygon fill="grey" stroke="grey" stroke-width="2" points="528.58,-406.67 529.43,-396.1 522.18,-403.83 528.58,-406.67"/>
</g>
<!-- 23 -->
<g id="node24" class="node">
<title>23</title>
<path fill="none" stroke="#56d8c1" stroke-width="2" d="M674,-396C674,-396 644,-396 644,-396 638,-396 632,-390 632,-384 632,-384 632,-372 632,-372 632,-366 638,-360 644,-360 644,-360 674,-360 674,-360 680,-360 686,-366 686,-372 686,-372 686,-384 686,-384 686,-390 680,-396 674,-396"/>
<text text-anchor="middle" x="659" y="-375.5" font-family="sans" font-size="10.00">busco</text>
</g>
<!-- 7&#45;&gt;23 -->
<g id="edge42" class="edge">
<title>7&#45;&gt;23</title>
<path fill="none" stroke="grey" stroke-width="2" d="M543.43,-431.88C567.48,-420.87 598.58,-406.64 622.46,-395.72"/>
<polygon fill="grey" stroke="grey" stroke-width="2" points="623.92,-398.9 631.56,-391.56 621.01,-392.53 623.92,-398.9"/>
</g>
<!-- 8 -->
<g id="node9" class="node">
<title>8</title>
<path fill="none" stroke="#5663d8" stroke-width="2" d="M741,-540C741,-540 655,-540 655,-540 649,-540 643,-534 643,-528 643,-528 643,-516 643,-516 643,-510 649,-504 655,-504 655,-504 741,-504 741,-504 747,-504 753,-510 753,-516 753,-516 753,-528 753,-528 753,-534 747,-540 741,-540"/>
<text text-anchor="middle" x="698" y="-519.5" font-family="sans" font-size="10.00">get_zenodo_assets</text>
</g>
<!-- 8&#45;&gt;7 -->
<g id="edge21" class="edge">
<title>8&#45;&gt;7</title>
<path fill="none" stroke="grey" stroke-width="2" d="M651.03,-503.88C624.32,-494.14 590.68,-481.87 562.53,-471.61"/>
<polygon fill="grey" stroke="grey" stroke-width="2" points="563.41,-468.21 552.82,-468.07 561.01,-474.78 563.41,-468.21"/>
</g>
<!-- 10 -->
<g id="node11" class="node">
<title>10</title>
<path fill="none" stroke="#59d856" stroke-width="2" d="M668.5,-468C668.5,-468 621.5,-468 621.5,-468 615.5,-468 609.5,-462 609.5,-456 609.5,-456 609.5,-444 609.5,-444 609.5,-438 615.5,-432 621.5,-432 621.5,-432 668.5,-432 668.5,-432 674.5,-432 680.5,-438 680.5,-444 680.5,-444 680.5,-456 680.5,-456 680.5,-462 674.5,-468 668.5,-468"/>
<text text-anchor="middle" x="645" y="-447.5" font-family="sans" font-size="10.00">rename_v1</text>
</g>
<!-- 8&#45;&gt;10 -->
<g id="edge24" class="edge">
<title>8&#45;&gt;10</title>
<path fill="none" stroke="grey" stroke-width="2" d="M684.9,-503.7C678.61,-495.39 670.95,-485.28 664.04,-476.14"/>
<polygon fill="grey" stroke="grey" stroke-width="2" points="666.78,-473.96 657.95,-468.1 661.2,-478.19 666.78,-473.96"/>
</g>
<!-- 11 -->
<g id="node12" class="node">
<title>11</title>
<path fill="none" stroke="#569ad8" stroke-width="2" d="M1020,-468C1020,-468 940,-468 940,-468 934,-468 928,-462 928,-456 928,-456 928,-444 928,-444 928,-438 934,-432 940,-432 940,-432 1020,-432 1020,-432 1026,-432 1032,-438 1032,-444 1032,-444 1032,-456 1032,-456 1032,-462 1026,-468 1020,-468"/>
<text text-anchor="middle" x="980" y="-447.5" font-family="sans" font-size="10.00">plot_matrix_rDNA</text>
</g>
<!-- 8&#45;&gt;11 -->
<g id="edge25" class="edge">
<title>8&#45;&gt;11</title>
<path fill="none" stroke="grey" stroke-width="2" d="M753.09,-508.38C795.61,-498.5 856.14,-484.15 917.87,-468.25"/>
<polygon fill="grey" stroke="grey" stroke-width="2" points="918.99,-471.58 927.79,-465.68 917.23,-464.8 918.99,-471.58"/>
</g>
<!-- 8&#45;&gt;17 -->
<g id="edge35" class="edge">
<title>8&#45;&gt;17</title>
<path fill="none" stroke="grey" stroke-width="2" d="M642.86,-511.54C538.15,-493.14 303.38,-449.81 97.91,-396.11"/>
<polygon fill="grey" stroke="grey" stroke-width="2" points="98.71,-392.7 88.14,-393.54 96.93,-399.47 98.71,-392.7"/>
</g>
<!-- 8&#45;&gt;20 -->
<g id="edge39" class="edge">
<title>8&#45;&gt;20</title>
<path fill="none" stroke="grey" stroke-width="2" d="M657.19,-503.78C638.79,-494.79 617.54,-482.61 601,-468 580.53,-449.91 562.9,-424.14 551.36,-404.97"/>
<polygon fill="grey" stroke="grey" stroke-width="2" points="554.27,-403.02 546.19,-396.16 548.23,-406.56 554.27,-403.02"/>
</g>
<!-- 26 -->
<g id="node27" class="node">
<title>26</title>
<path fill="none" stroke="#56c9d8" stroke-width="2" d="M1104.5,-324C1104.5,-324 1015.5,-324 1015.5,-324 1009.5,-324 1003.5,-318 1003.5,-312 1003.5,-312 1003.5,-300 1003.5,-300 1003.5,-294 1009.5,-288 1015.5,-288 1015.5,-288 1104.5,-288 1104.5,-288 1110.5,-288 1116.5,-294 1116.5,-300 1116.5,-300 1116.5,-312 1116.5,-312 1116.5,-318 1110.5,-324 1104.5,-324"/>
<text text-anchor="middle" x="1060" y="-303.5" font-family="sans" font-size="10.00">map_virus_amoeba</text>
</g>
<!-- 8&#45;&gt;26 -->
<g id="edge47" class="edge">
<title>8&#45;&gt;26</title>
<path fill="none" stroke="grey" stroke-width="2" d="M753.23,-520.3C839.97,-517.95 1002.25,-508.17 1041,-468 1075.27,-432.48 1071.5,-370.08 1065.73,-334.29"/>
<polygon fill="grey" stroke="grey" stroke-width="2" points="1069.12,-333.33 1063.92,-324.09 1062.23,-334.55 1069.12,-333.33"/>
</g>
<!-- 32 -->
<g id="node33" class="node">
<title>32</title>
<path fill="none" stroke="#567bd8" stroke-width="2" d="M793.5,-468C793.5,-468 710.5,-468 710.5,-468 704.5,-468 698.5,-462 698.5,-456 698.5,-456 698.5,-444 698.5,-444 698.5,-438 704.5,-432 710.5,-432 710.5,-432 793.5,-432 793.5,-432 799.5,-432 805.5,-438 805.5,-444 805.5,-444 805.5,-456 805.5,-456 805.5,-462 799.5,-468 793.5,-468"/>
<text text-anchor="middle" x="752" y="-447.5" font-family="sans" font-size="10.00">genomic_windows</text>
</g>
<!-- 8&#45;&gt;32 -->
<g id="edge53" class="edge">
<title>8&#45;&gt;32</title>
<path fill="none" stroke="grey" stroke-width="2" d="M711.35,-503.7C717.76,-495.39 725.56,-485.28 732.61,-476.14"/>
<polygon fill="grey" stroke="grey" stroke-width="2" points="735.47,-478.16 738.81,-468.1 729.93,-473.88 735.47,-478.16"/>
</g>
<!-- 36 -->
<g id="node37" class="node">
<title>36</title>
<path fill="none" stroke="#56d8a9" stroke-width="2" d="M898,-468C898,-468 836,-468 836,-468 830,-468 824,-462 824,-456 824,-456 824,-444 824,-444 824,-438 830,-432 836,-432 836,-432 898,-432 898,-432 904,-432 910,-438 910,-444 910,-444 910,-456 910,-456 910,-462 904,-468 898,-468"/>
<text text-anchor="middle" x="867" y="-447.5" font-family="sans" font-size="10.00">get_v1_hgt_fa</text>
</g>
<!-- 8&#45;&gt;36 -->
<g id="edge58" class="edge">
<title>8&#45;&gt;36</title>
<path fill="none" stroke="grey" stroke-width="2" d="M739.34,-503.88C762.55,-494.26 791.69,-482.19 816.27,-472.01"/>
<polygon fill="grey" stroke="grey" stroke-width="2" points="817.89,-475.13 825.79,-468.07 815.21,-468.66 817.89,-475.13"/>
</g>
<!-- 9&#45;&gt;0 -->
<g id="edge1" class="edge">
<title>9&#45;&gt;0</title>
<path fill="none" stroke="grey" stroke-width="2" d="M605.22,-287.97C614.24,-240.19 639.83,-104.62 650.85,-46.27"/>
<polygon fill="grey" stroke="grey" stroke-width="2" points="654.32,-46.78 652.73,-36.31 647.44,-45.48 654.32,-46.78"/>
</g>
<!-- 33 -->
<g id="node34" class="node">
<title>33</title>
<path fill="none" stroke="#56d882" stroke-width="2" d="M915,-252C915,-252 831,-252 831,-252 825,-252 819,-246 819,-240 819,-240 819,-228 819,-228 819,-222 825,-216 831,-216 831,-216 915,-216 915,-216 921,-216 927,-222 927,-228 927,-228 927,-240 927,-240 927,-246 921,-252 915,-252"/>
<text text-anchor="middle" x="873" y="-231.5" font-family="sans" font-size="10.00">get_hgt_coords_v2</text>
</g>
<!-- 9&#45;&gt;33 -->
<g id="edge55" class="edge">
<title>9&#45;&gt;33</title>
<path fill="none" stroke="grey" stroke-width="2" d="M661.81,-289.55C705.43,-278.28 764.45,-263.04 809.01,-251.53"/>
<polygon fill="grey" stroke="grey" stroke-width="2" points="810.06,-254.87 818.86,-248.98 808.31,-248.1 810.06,-254.87"/>
</g>
<!-- 10&#45;&gt;9 -->
<g id="edge23" class="edge">
<title>10&#45;&gt;9</title>
<path fill="none" stroke="grey" stroke-width="2" d="M667.6,-431.96C678.06,-422.63 689.4,-410.11 695,-396 700.91,-381.13 703.04,-373.83 695,-360 687.41,-346.94 675.27,-336.84 662.24,-329.12"/>
<polygon fill="grey" stroke="grey" stroke-width="2" points="663.57,-325.86 653.11,-324.16 660.22,-332.01 663.57,-325.86"/>
</g>
<!-- 10&#45;&gt;23 -->
<g id="edge43" class="edge">
<title>10&#45;&gt;23</title>
<path fill="none" stroke="grey" stroke-width="2" d="M648.46,-431.7C650,-423.98 651.86,-414.71 653.58,-406.11"/>
<polygon fill="grey" stroke="grey" stroke-width="2" points="657.05,-406.6 655.58,-396.1 650.19,-405.22 657.05,-406.6"/>
</g>
<!-- 11&#45;&gt;0 -->
<g id="edge9" class="edge">
<title>11&#45;&gt;0</title>
<path fill="none" stroke="grey" stroke-width="2" d="M979.9,-431.66C979.05,-383.76 972.6,-246.44 928,-144 911.93,-107.08 906.7,-94.03 873,-72 817.44,-35.68 739.17,-24.23 693.39,-20.64"/>
<polygon fill="grey" stroke="grey" stroke-width="2" points="693.53,-17.14 683.31,-19.93 693.04,-24.12 693.53,-17.14"/>
</g>
<!-- 12 -->
<g id="node13" class="node">
<title>12</title>
<path fill="none" stroke="#d87d56" stroke-width="2" d="M391.5,-324C391.5,-324 310.5,-324 310.5,-324 304.5,-324 298.5,-318 298.5,-312 298.5,-312 298.5,-300 298.5,-300 298.5,-294 304.5,-288 310.5,-288 310.5,-288 391.5,-288 391.5,-288 397.5,-288 403.5,-294 403.5,-300 403.5,-300 403.5,-312 403.5,-312 403.5,-318 397.5,-324 391.5,-324"/>
<text text-anchor="middle" x="351" y="-303.5" font-family="sans" font-size="10.00">mcscanx_amoeba</text>
</g>
<!-- 12&#45;&gt;0 -->
<g id="edge8" class="edge">
<title>12&#45;&gt;0</title>
<path fill="none" stroke="grey" stroke-width="2" d="M355.26,-288C367.07,-244.52 404.56,-128.73 481,-72 522.13,-41.48 580.92,-28.38 618.78,-22.86"/>
<polygon fill="grey" stroke="grey" stroke-width="2" points="619.43,-26.31 628.87,-21.5 618.49,-19.37 619.43,-26.31"/>
</g>
<!-- 16 -->
<g id="node17" class="node">
<title>16</title>
<path fill="none" stroke="#a7d856" stroke-width="2" d="M520,-252C520,-252 472,-252 472,-252 466,-252 460,-246 460,-240 460,-240 460,-228 460,-228 460,-222 466,-216 472,-216 472,-216 520,-216 520,-216 526,-216 532,-222 532,-228 532,-228 532,-240 532,-240 532,-246 526,-252 520,-252"/>
<text text-anchor="middle" x="496" y="-231.5" font-family="sans" font-size="10.00">prep_circos</text>
</g>
<!-- 12&#45;&gt;16 -->
<g id="edge32" class="edge">
<title>12&#45;&gt;16</title>
<path fill="none" stroke="grey" stroke-width="2" d="M386.47,-287.88C406.12,-278.39 430.72,-266.51 451.63,-256.42"/>
<polygon fill="grey" stroke="grey" stroke-width="2" points="453.16,-259.57 460.64,-252.07 450.12,-253.26 453.16,-259.57"/>
</g>
<!-- 13&#45;&gt;12 -->
<g id="edge26" class="edge">
<title>13&#45;&gt;12</title>
<path fill="none" stroke="grey" stroke-width="2" d="M411.22,-359.7C401.25,-350.97 388.99,-340.24 378.14,-330.75"/>
<polygon fill="grey" stroke="grey" stroke-width="2" points="380.38,-328.06 370.55,-324.1 375.77,-333.32 380.38,-328.06"/>
</g>
<!-- 14 -->
<g id="node15" class="node">
<title>14</title>
<path fill="none" stroke="#56d87b" stroke-width="2" d="M532,-108C532,-108 502,-108 502,-108 496,-108 490,-102 490,-96 490,-96 490,-84 490,-84 490,-78 496,-72 502,-72 502,-72 532,-72 532,-72 538,-72 544,-78 544,-84 544,-84 544,-96 544,-96 544,-102 538,-108 532,-108"/>
<text text-anchor="middle" x="517" y="-87.5" font-family="sans" font-size="10.00">circos</text>
</g>
<!-- 13&#45;&gt;14 -->
<g id="edge29" class="edge">
<title>13&#45;&gt;14</title>
<path fill="none" stroke="grey" stroke-width="2" d="M428.14,-359.93C422.27,-319.6 412.41,-216.37 451,-144 458.01,-130.85 469.82,-119.81 481.53,-111.26"/>
<polygon fill="grey" stroke="grey" stroke-width="2" points="483.69,-114.02 489.97,-105.48 479.74,-108.24 483.69,-114.02"/>
</g>
<!-- 13&#45;&gt;16 -->
<g id="edge33" class="edge">
<title>13&#45;&gt;16</title>
<path fill="none" stroke="grey" stroke-width="2" d="M438.84,-359.87C450.02,-335.46 470.63,-290.43 483.81,-261.64"/>
<polygon fill="grey" stroke="grey" stroke-width="2" points="487.15,-262.74 488.13,-252.19 480.79,-259.83 487.15,-262.74"/>
</g>
<!-- 14&#45;&gt;0 -->
<g id="edge7" class="edge">
<title>14&#45;&gt;0</title>
<path fill="none" stroke="grey" stroke-width="2" d="M544.13,-75.34C565.75,-64.45 596.22,-49.1 619.9,-37.18"/>
<polygon fill="grey" stroke="grey" stroke-width="2" points="621.58,-40.25 628.94,-32.63 618.43,-34 621.58,-40.25"/>
</g>
<!-- 15 -->
<g id="node16" class="node">
<title>15</title>
<path fill="none" stroke="#56d8c9" stroke-width="2" d="M516,-180C516,-180 472,-180 472,-180 466,-180 460,-174 460,-168 460,-168 460,-156 460,-156 460,-150 466,-144 472,-144 472,-144 516,-144 516,-144 522,-144 528,-150 528,-156 528,-156 528,-168 528,-168 528,-174 522,-180 516,-180"/>
<text text-anchor="middle" x="494" y="-159.5" font-family="sans" font-size="10.00">filter_links</text>
</g>
<!-- 15&#45;&gt;14 -->
<g id="edge28" class="edge">
<title>15&#45;&gt;14</title>
<path fill="none" stroke="grey" stroke-width="2" d="M499.69,-143.7C502.25,-135.9 505.33,-126.51 508.18,-117.83"/>
<polygon fill="grey" stroke="grey" stroke-width="2" points="511.58,-118.7 511.38,-108.1 504.93,-116.51 511.58,-118.7"/>
</g>
<!-- 16&#45;&gt;14 -->
<g id="edge30" class="edge">
<title>16&#45;&gt;14</title>
<path fill="none" stroke="grey" stroke-width="2" d="M514.17,-215.68C522.88,-206.1 532.41,-193.43 537,-180 544.04,-159.39 537.74,-135.24 530.41,-117.3"/>
<polygon fill="grey" stroke="grey" stroke-width="2" points="533.56,-115.76 526.3,-108.03 527.15,-118.59 533.56,-115.76"/>
</g>
<!-- 16&#45;&gt;15 -->
<g id="edge31" class="edge">
<title>16&#45;&gt;15</title>
<path fill="none" stroke="grey" stroke-width="2" d="M495.51,-215.7C495.29,-207.98 495.02,-198.71 494.77,-190.11"/>
<polygon fill="grey" stroke="grey" stroke-width="2" points="498.27,-190 494.49,-180.1 491.28,-190.2 498.27,-190"/>
</g>
<!-- 17&#45;&gt;0 -->
<g id="edge13" class="edge">
<title>17&#45;&gt;0</title>
<path fill="none" stroke="grey" stroke-width="2" d="M47.84,-359.61C53.4,-332.94 63,-280.27 63,-235 63,-235 63,-235 63,-161 63,-109.27 92.27,-96.17 138,-72 221.64,-27.79 514.8,-20.44 618.94,-19.23"/>
<polygon fill="grey" stroke="grey" stroke-width="2" points="619.02,-22.73 628.99,-19.13 618.95,-15.73 619.02,-22.73"/>
</g>
<!-- 18 -->
<g id="node19" class="node">
<title>18</title>
<path fill="none" stroke="#d8cb56" stroke-width="2" d="M354,-108C354,-108 250,-108 250,-108 244,-108 238,-102 238,-96 238,-96 238,-84 238,-84 238,-78 244,-72 250,-72 250,-72 354,-72 354,-72 360,-72 366,-78 366,-84 366,-84 366,-96 366,-96 366,-102 360,-108 354,-108"/>
<text text-anchor="middle" x="302" y="-87.5" font-family="sans" font-size="10.00">plot_orthogroups_venn</text>
</g>
<!-- 18&#45;&gt;0 -->
<g id="edge12" class="edge">
<title>18&#45;&gt;0</title>
<path fill="none" stroke="grey" stroke-width="2" d="M366.25,-74.87C370.9,-73.88 375.52,-72.92 380,-72 465.37,-54.5 565.95,-35.62 618.97,-25.81"/>
<polygon fill="grey" stroke="grey" stroke-width="2" points="619.73,-29.23 628.92,-23.97 618.45,-22.34 619.73,-29.23"/>
</g>
<!-- 19&#45;&gt;18 -->
<g id="edge36" class="edge">
<title>19&#45;&gt;18</title>
<path fill="none" stroke="grey" stroke-width="2" d="M304.26,-143.7C303.93,-135.98 303.53,-126.71 303.16,-118.11"/>
<polygon fill="grey" stroke="grey" stroke-width="2" points="306.66,-117.95 302.73,-108.1 299.66,-118.25 306.66,-117.95"/>
</g>
<!-- 20&#45;&gt;0 -->
<g id="edge4" class="edge">
<title>20&#45;&gt;0</title>
<path fill="none" stroke="grey" stroke-width="2" d="M533.62,-359.72C530.69,-341.62 527.67,-312.48 533,-288 553.74,-192.74 611.36,-90.83 639.76,-44.52"/>
<polygon fill="grey" stroke="grey" stroke-width="2" points="642.74,-46.37 645.03,-36.02 636.79,-42.68 642.74,-46.37"/>
</g>
<!-- 21 -->
<g id="node22" class="node">
<title>21</title>
<path fill="none" stroke="#d8c356" stroke-width="2" d="M732.5,-252C732.5,-252 687.5,-252 687.5,-252 681.5,-252 675.5,-246 675.5,-240 675.5,-240 675.5,-228 675.5,-228 675.5,-222 681.5,-216 687.5,-216 687.5,-216 732.5,-216 732.5,-216 738.5,-216 744.5,-222 744.5,-228 744.5,-228 744.5,-240 744.5,-240 744.5,-246 738.5,-252 732.5,-252"/>
<text text-anchor="middle" x="710" y="-231.5" font-family="sans" font-size="10.00">plot_busco</text>
</g>
<!-- 21&#45;&gt;0 -->
<g id="edge11" class="edge">
<title>21&#45;&gt;0</title>
<path fill="none" stroke="grey" stroke-width="2" d="M705.67,-215.85C696.31,-178.75 674.12,-90.81 662.84,-46.1"/>
<polygon fill="grey" stroke="grey" stroke-width="2" points="666.19,-45.07 660.35,-36.23 659.4,-46.78 666.19,-45.07"/>
</g>
<!-- 22 -->
<g id="node23" class="node">
<title>22</title>
<path fill="none" stroke="#b6d856" stroke-width="2" d="M750.5,-324C750.5,-324 691.5,-324 691.5,-324 685.5,-324 679.5,-318 679.5,-312 679.5,-312 679.5,-300 679.5,-300 679.5,-294 685.5,-288 691.5,-288 691.5,-288 750.5,-288 750.5,-288 756.5,-288 762.5,-294 762.5,-300 762.5,-300 762.5,-312 762.5,-312 762.5,-318 756.5,-324 750.5,-324"/>
<text text-anchor="middle" x="721" y="-303.5" font-family="sans" font-size="10.00">format_busco</text>
</g>
<!-- 22&#45;&gt;21 -->
<g id="edge40" class="edge">
<title>22&#45;&gt;21</title>
<path fill="none" stroke="grey" stroke-width="2" d="M718.28,-287.7C717.07,-279.98 715.61,-270.71 714.26,-262.11"/>
<polygon fill="grey" stroke="grey" stroke-width="2" points="717.7,-261.44 712.69,-252.1 710.78,-262.53 717.7,-261.44"/>
</g>
<!-- 23&#45;&gt;22 -->
<g id="edge41" class="edge">
<title>23&#45;&gt;22</title>
<path fill="none" stroke="grey" stroke-width="2" d="M674.33,-359.7C681.76,-351.3 690.82,-341.07 698.98,-331.86"/>
<polygon fill="grey" stroke="grey" stroke-width="2" points="701.84,-333.91 705.85,-324.1 696.6,-329.27 701.84,-333.91"/>
</g>
<!-- 24 -->
<g id="node25" class="node">
<title>24</title>
<path fill="none" stroke="#56d89a" stroke-width="2" d="M1057.5,-108C1057.5,-108 938.5,-108 938.5,-108 932.5,-108 926.5,-102 926.5,-96 926.5,-96 926.5,-84 926.5,-84 926.5,-78 932.5,-72 938.5,-72 938.5,-72 1057.5,-72 1057.5,-72 1063.5,-72 1069.5,-78 1069.5,-84 1069.5,-84 1069.5,-96 1069.5,-96 1069.5,-102 1063.5,-108 1057.5,-108"/>
<text text-anchor="middle" x="998" y="-87.5" font-family="sans" font-size="10.00">aggregate_virus_matches</text>
</g>
<!-- 24&#45;&gt;0 -->
<g id="edge6" class="edge">
<title>24&#45;&gt;0</title>
<path fill="none" stroke="grey" stroke-width="2" d="M926.31,-74.33C855.28,-59.79 749.27,-38.09 693.46,-26.67"/>
<polygon fill="grey" stroke="grey" stroke-width="2" points="693.82,-23.17 683.32,-24.59 692.41,-30.03 693.82,-23.17"/>
</g>
<!-- 25 -->
<g id="node26" class="node">
<title>25</title>
<path fill="none" stroke="#56c1d8" stroke-width="2" d="M1103,-252C1103,-252 1007,-252 1007,-252 1001,-252 995,-246 995,-240 995,-240 995,-228 995,-228 995,-222 1001,-216 1007,-216 1007,-216 1103,-216 1103,-216 1109,-216 1115,-222 1115,-228 1115,-228 1115,-240 1115,-240 1115,-246 1109,-252 1103,-252"/>
<text text-anchor="middle" x="1055" y="-231.5" font-family="sans" font-size="10.00">parse_virus_matches</text>
</g>
<!-- 25&#45;&gt;24 -->
<g id="edge44" class="edge">
<title>25&#45;&gt;24</title>
<path fill="none" stroke="grey" stroke-width="2" d="M1048.12,-215.87C1038.32,-191.46 1020.25,-146.43 1008.69,-117.64"/>
<polygon fill="grey" stroke="grey" stroke-width="2" points="1011.87,-116.17 1004.9,-108.19 1005.38,-118.77 1011.87,-116.17"/>
</g>
<!-- 29 -->
<g id="node30" class="node">
<title>29</title>
<path fill="none" stroke="#56d863" stroke-width="2" d="M1198.5,-180C1198.5,-180 1091.5,-180 1091.5,-180 1085.5,-180 1079.5,-174 1079.5,-168 1079.5,-168 1079.5,-156 1079.5,-156 1079.5,-150 1085.5,-144 1091.5,-144 1091.5,-144 1198.5,-144 1198.5,-144 1204.5,-144 1210.5,-150 1210.5,-156 1210.5,-156 1210.5,-168 1210.5,-168 1210.5,-174 1204.5,-180 1198.5,-180"/>
<text text-anchor="middle" x="1145" y="-159.5" font-family="sans" font-size="10.00">merge_virus_segments</text>
</g>
<!-- 25&#45;&gt;29 -->
<g id="edge49" class="edge">
<title>25&#45;&gt;29</title>
<path fill="none" stroke="grey" stroke-width="2" d="M1077.25,-215.7C1088.58,-206.88 1102.53,-196.03 1114.82,-186.47"/>
<polygon fill="grey" stroke="grey" stroke-width="2" points="1117.26,-189.01 1123.01,-180.1 1112.97,-183.48 1117.26,-189.01"/>
</g>
<!-- 38 -->
<g id="node39" class="node">
<title>38</title>
<path fill="none" stroke="#566bd8" stroke-width="2" d="M907,-180C907,-180 851,-180 851,-180 845,-180 839,-174 839,-168 839,-168 839,-156 839,-156 839,-150 845,-144 851,-144 851,-144 907,-144 907,-144 913,-144 919,-150 919,-156 919,-156 919,-168 919,-168 919,-174 913,-180 907,-180"/>
<text text-anchor="middle" x="879" y="-159.5" font-family="sans" font-size="10.00">agg_features</text>
</g>
<!-- 25&#45;&gt;38 -->
<g id="edge61" class="edge">
<title>25&#45;&gt;38</title>
<path fill="none" stroke="grey" stroke-width="2" d="M1011.95,-215.88C986.75,-205.85 954.83,-193.16 928.59,-182.72"/>
<polygon fill="grey" stroke="grey" stroke-width="2" points="929.78,-179.43 919.2,-178.99 927.2,-185.94 929.78,-179.43"/>
</g>
<!-- 26&#45;&gt;25 -->
<g id="edge45" class="edge">
<title>26&#45;&gt;25</title>
<path fill="none" stroke="grey" stroke-width="2" d="M1058.76,-287.7C1058.21,-279.98 1057.55,-270.71 1056.94,-262.11"/>
<polygon fill="grey" stroke="grey" stroke-width="2" points="1060.43,-261.83 1056.22,-252.1 1053.44,-262.33 1060.43,-261.83"/>
</g>
<!-- 27 -->
<g id="node28" class="node">
<title>27</title>
<path fill="none" stroke="#d8ac56" stroke-width="2" d="M1144,-396C1144,-396 1100,-396 1100,-396 1094,-396 1088,-390 1088,-384 1088,-384 1088,-372 1088,-372 1088,-366 1094,-360 1100,-360 1100,-360 1144,-360 1144,-360 1150,-360 1156,-366 1156,-372 1156,-372 1156,-384 1156,-384 1156,-390 1150,-396 1144,-396"/>
<text text-anchor="middle" x="1122" y="-375.5" font-family="sans" font-size="10.00">get_viruse</text>
</g>
<!-- 27&#45;&gt;26 -->
<g id="edge46" class="edge">
<title>27&#45;&gt;26</title>
<path fill="none" stroke="grey" stroke-width="2" d="M1106.67,-359.7C1099.24,-351.3 1090.18,-341.07 1082.02,-331.86"/>
<polygon fill="grey" stroke="grey" stroke-width="2" points="1084.4,-329.27 1075.15,-324.1 1079.16,-333.91 1084.4,-329.27"/>
</g>
<!-- 28 -->
<g id="node29" class="node">
<title>28</title>
<path fill="none" stroke="#d85656" stroke-width="2" d="M1190.5,-108C1190.5,-108 1099.5,-108 1099.5,-108 1093.5,-108 1087.5,-102 1087.5,-96 1087.5,-96 1087.5,-84 1087.5,-84 1087.5,-78 1093.5,-72 1099.5,-72 1099.5,-72 1190.5,-72 1190.5,-72 1196.5,-72 1202.5,-78 1202.5,-84 1202.5,-84 1202.5,-96 1202.5,-96 1202.5,-102 1196.5,-108 1190.5,-108"/>
<text text-anchor="middle" x="1145" y="-87.5" font-family="sans" font-size="10.00">viral_regions_pileup</text>
</g>
<!-- 28&#45;&gt;0 -->
<g id="edge3" class="edge">
<title>28&#45;&gt;0</title>
<path fill="none" stroke="grey" stroke-width="2" d="M1087.15,-73.65C1084.4,-73.06 1081.67,-72.51 1079,-72 937.81,-45.09 767.41,-28.51 693.37,-22.07"/>
<polygon fill="grey" stroke="grey" stroke-width="2" points="693.42,-18.56 683.16,-21.19 692.82,-25.54 693.42,-18.56"/>
</g>
<!-- 29&#45;&gt;28 -->
<g id="edge48" class="edge">
<title>29&#45;&gt;28</title>
<path fill="none" stroke="grey" stroke-width="2" d="M1145,-143.7C1145,-135.98 1145,-126.71 1145,-118.11"/>
<polygon fill="grey" stroke="grey" stroke-width="2" points="1148.5,-118.1 1145,-108.1 1141.5,-118.1 1148.5,-118.1"/>
</g>
<!-- 30 -->
<g id="node31" class="node">
<title>30</title>
<path fill="none" stroke="#d86e56" stroke-width="2" d="M1331,-108C1331,-108 1233,-108 1233,-108 1227,-108 1221,-102 1221,-96 1221,-96 1221,-84 1221,-84 1221,-78 1227,-72 1233,-72 1233,-72 1331,-72 1331,-72 1337,-72 1343,-78 1343,-84 1343,-84 1343,-96 1343,-96 1343,-102 1337,-108 1331,-108"/>
<text text-anchor="middle" x="1282" y="-87.5" font-family="sans" font-size="10.00">viral_regions_borders</text>
</g>
<!-- 29&#45;&gt;30 -->
<g id="edge50" class="edge">
<title>29&#45;&gt;30</title>
<path fill="none" stroke="grey" stroke-width="2" d="M1178.51,-143.88C1196.84,-134.51 1219.74,-122.81 1239.33,-112.8"/>
<polygon fill="grey" stroke="grey" stroke-width="2" points="1241.04,-115.86 1248.36,-108.19 1237.86,-109.62 1241.04,-115.86"/>
</g>
<!-- 30&#45;&gt;0 -->
<g id="edge5" class="edge">
<title>30&#45;&gt;0</title>
<path fill="none" stroke="grey" stroke-width="2" d="M1220.64,-73.57C1217.73,-73.01 1214.84,-72.48 1212,-72 1018.35,-39.43 783.13,-25.22 693.31,-20.71"/>
<polygon fill="grey" stroke="grey" stroke-width="2" points="693.24,-17.2 683.08,-20.21 692.9,-24.19 693.24,-17.2"/>
</g>
<!-- 31 -->
<g id="node32" class="node">
<title>31</title>
<path fill="none" stroke="#bed856" stroke-width="2" d="M809,-180C809,-180 725,-180 725,-180 719,-180 713,-174 713,-168 713,-168 713,-156 713,-156 713,-150 719,-144 725,-144 725,-144 809,-144 809,-144 815,-144 821,-150 821,-156 821,-156 821,-168 821,-168 821,-174 815,-180 809,-180"/>
<text text-anchor="middle" x="767" y="-159.5" font-family="sans" font-size="10.00">windows_inter_hgt</text>
</g>
<!-- 31&#45;&gt;0 -->
<g id="edge2" class="edge">
<title>31&#45;&gt;0</title>
<path fill="none" stroke="grey" stroke-width="2" d="M753.61,-143.87C734.19,-119.03 698.09,-72.85 675.65,-44.14"/>
<polygon fill="grey" stroke="grey" stroke-width="2" points="678.35,-41.91 669.44,-36.19 672.84,-46.22 678.35,-41.91"/>
</g>
<!-- 32&#45;&gt;31 -->
<g id="edge51" class="edge">
<title>32&#45;&gt;31</title>
<path fill="none" stroke="grey" stroke-width="2" d="M755.66,-431.71C760.54,-407.69 768.92,-362.78 772,-324 775.72,-277.16 772.41,-222.46 769.69,-190.39"/>
<polygon fill="grey" stroke="grey" stroke-width="2" points="773.17,-190.07 768.8,-180.42 766.2,-190.69 773.17,-190.07"/>
</g>
<!-- 33&#45;&gt;31 -->
<g id="edge52" class="edge">
<title>33&#45;&gt;31</title>
<path fill="none" stroke="grey" stroke-width="2" d="M847.07,-215.88C833.34,-206.81 816.29,-195.55 801.46,-185.76"/>
<polygon fill="grey" stroke="grey" stroke-width="2" points="803.3,-182.78 793.03,-180.19 799.45,-188.62 803.3,-182.78"/>
</g>
<!-- 33&#45;&gt;38 -->
<g id="edge60" class="edge">
<title>33&#45;&gt;38</title>
<path fill="none" stroke="grey" stroke-width="2" d="M874.48,-215.7C875.14,-207.98 875.94,-198.71 876.68,-190.11"/>
<polygon fill="grey" stroke="grey" stroke-width="2" points="880.17,-190.37 877.53,-180.1 873.19,-189.77 880.17,-190.37"/>
</g>
<!-- 34 -->
<g id="node35" class="node">
<title>34</title>
<path fill="none" stroke="#78d856" stroke-width="2" d="M907,-324C907,-324 839,-324 839,-324 833,-324 827,-318 827,-312 827,-312 827,-300 827,-300 827,-294 833,-288 839,-288 839,-288 907,-288 907,-288 913,-288 919,-294 919,-300 919,-300 919,-312 919,-312 919,-318 913,-324 907,-324"/>
<text text-anchor="middle" x="873" y="-303.5" font-family="sans" font-size="10.00">filter_blast_hits</text>
</g>
<!-- 34&#45;&gt;33 -->
<g id="edge54" class="edge">
<title>34&#45;&gt;33</title>
<path fill="none" stroke="grey" stroke-width="2" d="M873,-287.7C873,-279.98 873,-270.71 873,-262.11"/>
<polygon fill="grey" stroke="grey" stroke-width="2" points="876.5,-262.1 873,-252.1 869.5,-262.1 876.5,-262.1"/>
</g>
<!-- 35 -->
<g id="node36" class="node">
<title>35</title>
<path fill="none" stroke="#8fd856" stroke-width="2" d="M917,-396C917,-396 829,-396 829,-396 823,-396 817,-390 817,-384 817,-384 817,-372 817,-372 817,-366 823,-360 829,-360 829,-360 917,-360 917,-360 923,-360 929,-366 929,-372 929,-372 929,-384 929,-384 929,-390 923,-396 917,-396"/>
<text text-anchor="middle" x="873" y="-375.5" font-family="sans" font-size="10.00">blast_v1_hgt_vs_ac</text>
</g>
<!-- 35&#45;&gt;34 -->
<g id="edge56" class="edge">
<title>35&#45;&gt;34</title>
<path fill="none" stroke="grey" stroke-width="2" d="M873,-359.7C873,-351.98 873,-342.71 873,-334.11"/>
<polygon fill="grey" stroke="grey" stroke-width="2" points="876.5,-334.1 873,-324.1 869.5,-334.1 876.5,-334.1"/>
</g>
<!-- 36&#45;&gt;35 -->
<g id="edge57" class="edge">
<title>36&#45;&gt;35</title>
<path fill="none" stroke="grey" stroke-width="2" d="M868.48,-431.7C869.14,-423.98 869.94,-414.71 870.68,-406.11"/>
<polygon fill="grey" stroke="grey" stroke-width="2" points="874.17,-406.37 871.53,-396.1 867.19,-405.77 874.17,-406.37"/>
</g>
<!-- 37 -->
<g id="node38" class="node">
<title>37</title>
<path fill="none" stroke="#d89556" stroke-width="2" d="M852,-108C852,-108 796,-108 796,-108 790,-108 784,-102 784,-96 784,-96 784,-84 784,-84 784,-78 790,-72 796,-72 796,-72 852,-72 852,-72 858,-72 864,-78 864,-84 864,-84 864,-96 864,-96 864,-102 858,-108 852,-108"/>
<text text-anchor="middle" x="824" y="-87.5" font-family="sans" font-size="10.00">viz_scaffolds</text>
</g>
<!-- 37&#45;&gt;0 -->
<g id="edge10" class="edge">
<title>37&#45;&gt;0</title>
<path fill="none" stroke="grey" stroke-width="2" d="M783.76,-72.23C756.01,-60.67 719.41,-45.42 692.51,-34.21"/>
<polygon fill="grey" stroke="grey" stroke-width="2" points="693.64,-30.89 683.06,-30.28 690.95,-37.35 693.64,-30.89"/>
</g>
<!-- 38&#45;&gt;37 -->
<g id="edge59" class="edge">
<title>38&#45;&gt;37</title>
<path fill="none" stroke="grey" stroke-width="2" d="M865.4,-143.7C858.88,-135.39 850.93,-125.28 843.75,-116.14"/>
<polygon fill="grey" stroke="grey" stroke-width="2" points="846.37,-113.81 837.44,-108.1 840.87,-118.13 846.37,-113.81"/>
</g>
</g>
</svg>
